<?xml version="1.0" encoding="utf-8"?>
<!-- Generator: Adobe Illustrator 18.1.1, SVG Export Plug-In . SVG Version: 6.00 Build 0)  -->
<svg version="1.1" id="Layer_1" xmlns="http://www.w3.org/2000/svg" xmlns:xlink="http://www.w3.org/1999/xlink" x="0px" y="0px"
	 viewBox="0 0 517.5 504" enable-background="new 0 0 517.5 504" xml:space="preserve">
<g>
	<path fill="#832C30" d="M230,299.5c-21.7,13.1-61.2,25.4-89.7-16.2c-9.3-13.5,12.7-80.2,77.3-92.8c-45.3-20.5-91.3-0.8-120.5-3.3
		c-7.7-0.7,5.3-15.5,23.9-20.6c-20.3-7.8-29.3,0.6-40.6,5.1c-10.4-19.6-17.8-2.6-16.2-49.1c-11.5,11.5-19.3,26-23.9,42.2
		c-2.6,9.1-4.2,70.7-28.8,12c-5.7,94.3,99.6,229.1,203,149.1c4.2-3.3,15.3-5.7,15.3-5.7S234.8,296.5,230,299.5z"/>
	<path fill="#832C30" d="M456,165.7c0,0,12.9-12.7,17.5-16.7c6.6-5.8,20.1,0.7,23.5,8.2c3.2,7-2.9,8.2-3.1,11.1
		c-0.4,6.1,7.2,17.1,8.1,23.2c0.6,3.9-2.8,15.4-2.8,15.4s-24.1-2.3-23.7-8.7c0.3-5.4,6.6-17.6,3.5-19.2c-3.3-1.7-2.4,24-13.2,24.7
		C456,204.2,456,165.7,456,165.7z"/>
	<path fill="#832C30" d="M394,53c0,0,11.1-24.4,5.2-28.9c-27.2-20.8-45.8,18.8-45.8,18.8s-3.8,9.3-52.1-17.6
		c29.7,34.5,23.6,23.1,23.9,31.6c-8.7,5.8-21.3,14.7-33.1,19.3c1.6,5.8,20.7-1.7,27.8-2.5c-2.7,5.8-13,7.8-15.9,11.8
		c-5.1,7,3.7,13.7-3.6,34.6c7.4,7.9,14.6-8.6,19.4-11.1c-6.5,32.1,12.6,50-17.2,56c-4.6,0.9,5.7,8.6,18.4,3.3
		c-17.8,23.3-21.3,66.6-21.3,66.6l76.4-33.3L394,53z"/>
	<path fill="#832C30" d="M328.9,331.6c12.5,21-23.2,92.3-23.2,95c-0.7,43.6,39.4,44.6,37.3,56.3c-2.2,12.2-21.3,2.1-36.6-0.3
		c0.3-19.6-40.2-58.4-41.6-81.1c-1.4-21.4,38.9-76.6,38.9-76.6S325.5,326,328.9,331.6z"/>
	<path fill="#AD1F23" d="M267.9,483.9c11.6,2.5,17.4,4.8,31.5,5.7c1.4-0.8,1.9-4.9,1.1-6.3c-3.6-6.6-25.1-23.7-31.3-42.6
		c0.7-13.7,2.7-21,7.8-25.3c4.8-4,60.5-38.5,38.7-75.8c86.5-3.2,108.6-75.7,123.2-93.1c7-8.4,28-17.6,39.7-18.3
		c-11.4,12.7-9.8,25.2-12.4,26.4c-12.2,5.7-13.6,14.8-11.8,23.4c1.8,1.8,10.7,17.8,15.7,16.1c3.4-6.6,3.9-31,12-34.4
		c10.2-4.3,8.9-20.7,13.4-28.8c4.4-8,20.2-33.1-18.5-36.3c-1.4-0.1-11.1,2.5-11,1.1c1.1-24.2-34.3-79.7-32.6-83.9
		c3.8-9.8,30.5-5.4,40.1-13c4-3.2,8-14.7,6.2-19.5c-4.2-11.5-29.7-21-41.4-26c-2.1-0.9-8.5-28-34.5-29.9c-1.3-2.2,4-8.3,2.2-10.1
		c-6.3,2.9-23.4,13.6-26.1,24.3c-12.8,10.1-31.1,29.6-36.3,48.8c-13,47.5,14.5,74.3-33,126.8c-20.7,22.9-69.3,22.5-82,92.6
		c-8.8,48.6,33.6,71,24.8,85.3C227.6,432.8,272.8,471.3,267.9,483.9z"/>
</g>
<g>
	<path fill="#F1F2F2" d="M261.9,288.2c-0.8-1.1-1.5-1.8-2-2.2c-0.5-0.4-0.9-0.7-1.2-0.8s-0.7-0.1-1.1,0c-0.7,0.2-1.5,0.9-2.6,2.2
		l-1.9,2.2l15.4,13.3c0.5,0.4,0.9,0.8,1.3,0.9c0.3,0.2,0.7,0.2,1,0.1s0.8-0.4,1.3-0.8c0.5-0.4,1.1-1,1.9-1.8l1.2,1l-8.4,9.7l-1.2-1
		c1.2-1.7,1.8-2.8,1.9-3.2c0.1-0.4,0-0.8-0.2-1.2c-0.2-0.3-0.6-0.7-1.1-1.2l-15.4-13.3l-2.2,2.6c-1.4,1.6-1.6,3.4-0.6,5.5
		c0.3,0.6,0.6,1.3,1,2l0.3,0.5l-1.1,1.3l-4.4-6.4l14.9-17.2l4.5,6.3L261.9,288.2z"/>
	<path fill="#F1F2F2" d="M272.4,278.7c-0.9-2.2-0.9-4.8-0.2-7.9c2.2-0.8,4.1-1.2,5.7-1.2c2.7,0.1,5.7,1.3,9,3.7
		c1.2,0.8,2.2,1.7,3.2,2.5c1,0.9,1.7,1.4,2.1,1.7c0.4,0.3,0.7,0.4,1,0.5c0.3,0,0.5,0,0.8-0.2c0.2-0.2,0.5-0.3,0.7-0.5
		c0.2-0.2,0.4-0.3,0.5-0.4c0.1-0.1,0.2-0.2,0.3-0.2l1.1,1l-6.2,7.2l-1.1-1c0.4-0.6,0.7-1,0.9-1.4s0.3-0.7,0.3-1
		c0-0.5-0.6-1.2-1.8-2.2l-1.6-1.3c-2-1.7-3.5-2.9-4.3-3.5s-1.6-1-2.3-1.3c-0.6-0.3-1.3-0.5-1.9-0.7c-1.2-0.3-2.7-0.2-4.5,0.1
		c-0.3,2-0.4,3.7-0.1,5.1c0.4,2,1.6,3.7,3.4,5.3l4.5,3.9c0.6,0.5,1.1,0.9,1.5,1.2c0.4,0.3,0.7,0.4,1,0.4c0.3,0,0.6-0.1,1-0.4
		c0.3-0.2,0.8-0.6,1.3-1.1l1.1,1l-6.3,7.3l-1.1-0.9l0,0c0.4-0.6,0.7-1,0.9-1.4c0.2-0.4,0.3-0.7,0.2-1c0-0.4-0.6-1.1-1.5-1.9
		L263.8,276c-1-0.9-1.7-1.3-2-1.2c-0.4,0-0.7,0.2-1,0.4c-0.3,0.3-0.7,0.6-1.2,1.1l-1.1-1l6.3-7.3l1.1,1c-0.4,0.5-0.7,1-0.9,1.3
		s-0.3,0.7-0.3,0.9c0,0.5,0.5,1.1,1.5,2L272.4,278.7z"/>
	<path fill="#F1F2F2" d="M307.6,260.9c0.4,2.5-0.4,5-2.5,7.4c-2,2.3-4.4,3.5-7,3.5c-2.6,0-5-1-7.4-3.1c-2.5-2.1-3.9-4.6-4.3-7.4
		c-0.4-2.8,0.4-5.3,2.3-7.5c1.4-1.7,2.9-2.7,4.5-3c1.4-0.3,2.7,0,3.9,1c1.5,1.3,2.1,3.1,1.9,5.5c-0.3,2.7-1.9,5.8-4.8,9.3
		c3.9,2.8,7.1,2.8,9.7-0.2c1.6-1.9,2.4-3.7,2.4-5.4L307.6,260.9z M292.6,265.4c2.7-3.2,3.8-6,3.3-8.4c-0.2-0.9-0.7-1.6-1.5-2.3
		c-1-0.9-2.1-1.1-3.3-0.5c-0.4,0.2-0.9,0.6-1.3,1.1c-0.4,0.5-0.7,1-0.9,1.6c-0.2,0.6-0.2,1.1-0.2,1.7c0,0.6,0.2,1.2,0.4,1.8
		c0.2,0.6,0.5,1.2,0.8,1.8C290.7,263.4,291.6,264.4,292.6,265.4z"/>
	<path fill="#F1F2F2" d="M268.8,349.8c0.6-0.5,1.3-1.2,2.1-2.1c0.8-0.9,1.4-2,1.6-3.1c0.3-1.1,0.3-2.2,0-3.3c-0.5-2.1-2-4.3-4.5-6.4
		c-2.4-2.1-4.4-3.3-6.1-3.7c-2.3-0.5-4.6,0.4-6.7,2.9c-2.6,3-3.3,5.3-2.1,6.9c0.4,0.5,0.8,1,1.4,1.4l19.4,16.8
		c0.8,0.7,1.4,1.1,1.9,1.4s1,0.4,1.4,0.3c0.4-0.1,0.9-0.3,1.4-0.7s1.2-1,2-1.8l1-1l1.6,1.4L272.7,371l-1.6-1.4
		c0-0.1,0.1-0.2,0.2-0.3c0.1-0.1,0.3-0.4,0.5-0.8c0.2-0.4,0.5-0.8,0.7-1.2c0.2-0.4,0.3-0.9,0.2-1.3c-0.1-0.7-0.9-1.7-2.3-2.9
		L250.6,346c-1.3-1.1-2.2-1.6-2.7-1.6c-0.6,0-1.1,0.2-1.6,0.6c-0.5,0.3-1.1,0.9-1.9,1.6l-1.7-1.5l4.4-5.1c1.1-1.3,2.1-2.6,3.1-4
		c1-1.4,2.1-2.9,3.6-4.6c1.4-1.7,3-2.9,4.6-3.7c1.6-0.8,3.2-1.2,4.8-1.2c2.8,0,5.6,1.3,8.5,3.8c2.9,2.5,4.6,5.4,5.1,8.5
		c0.6,3.6-0.6,7.1-3.6,10.6c-0.7,0.8-1.6,1.6-2.8,2.4L268.8,349.8z"/>
	<path fill="#F1F2F2" d="M291.7,315.5c-0.1-1.3-0.8-2.6-2.3-3.9c-0.7-0.6-1.5-0.8-2.5-0.4c-0.8,0.3-1.7,1-2.7,2.1
		c-2.1,2.5-2.4,4.4-0.8,5.8l14.9,12.9c0.6,0.5,1.1,0.8,1.5,1c0.5,0.2,1,0.2,1.5,0c1-0.3,2.6-1.7,4.8-4.1l1.6,1.4l-11.3,13.1
		l-1.6-1.4l0-0.1c1.2-1.7,1.8-2.8,1.7-3.3s-0.2-1-0.5-1.4c-0.3-0.4-0.8-0.9-1.4-1.4l-13.6-11.7c-1.4-1.2-2.4-1.9-3-1.9
		c-0.6,0-1.1,0.1-1.6,0.4c-0.5,0.3-1,0.7-1.7,1.3l-1.7-1.4l3.5-4.1c1.4-1.6,2.3-2.8,2.9-3.5c0.5-0.7,0.9-1.3,1.3-1.7
		c0.9-1.3,1.7-2.3,2.3-3c0.6-0.7,1.4-1.4,2.1-2.1c0.8-0.7,1.6-1.2,2.4-1.6c1.8-0.8,3.3-0.6,4.6,0.5c1.1,0.9,1.7,2.2,1.8,3.8
		c0.2,1.6-0.1,2.9-0.6,4.2L291.7,315.5z"/>
	<path fill="#F1F2F2" d="M301.9,296.8c0.2,0.6,0.6,1.1,1.1,1.5c0.5,0.5,1.4,0.8,2.6,0.9l-0.3,2c-1.6,1.3-3.2,1.9-4.8,1.7
		c-0.6-0.1-1.1-0.3-1.7-0.8c-0.6-0.5-0.9-1.2-1.2-2.2c-0.2-1-0.2-2.1,0.1-3.3c0.6-2.7,2-5.4,4.4-8.1c3.9-4.5,7.6-6.1,11.1-5
		c1.1,0.4,2.1,1,3.1,1.8l12.3,10.6c1.5,1.3,2.5,2,3.1,1.9s1.1-0.2,1.5-0.5s1-0.8,1.7-1.5l1.6,1.4l-4.2,4.9c-0.8,1-1.7,2.1-2.7,3.4
		c-2,2.7-3.5,4.8-4.7,6.2s-2.4,2.4-3.7,3.1s-2.5,1.2-3.7,1.3c-2.3,0.3-4.3-0.3-6.1-1.9c-1.9-1.7-2.8-4.4-2.5-8
		c0.3-4.5,2.7-9.3,6.9-14.4l-3.4-3c-2.7-2.3-5.6-1.7-8.8,1.9C301.8,292.9,301.2,294.9,301.9,296.8z M317.8,293.7
		c-5.7,7.4-6.6,12.8-2.6,16.2c2.1,1.8,4.3,1.9,6.7,0.3c0.8-0.5,1.6-1.2,2.4-2.2c0.8-1,1.5-1.9,2-2.6s0.7-1.5,0.8-2.1
		c0-0.6-0.1-1.2-0.5-1.8c-0.4-0.6-1-1.2-1.8-1.9L317.8,293.7z M317.8,293.7L317.8,293.7L317.8,293.7L317.8,293.7z"/>
	<path fill="#F1F2F2" d="M326.7,269c-1.3-3.2-1.5-7-0.4-11.5c3.2-1.2,6-1.8,8.5-1.8c4,0.1,8.4,1.9,13.3,5.4c1.7,1.2,3.3,2.5,4.7,3.7
		c1.5,1.3,2.5,2.1,3,2.5c0.6,0.4,1.1,0.6,1.5,0.7c0.4,0.1,0.8,0,1.2-0.3c0.4-0.3,0.7-0.5,1.1-0.8c0.3-0.3,0.6-0.5,0.7-0.6
		c0.1-0.1,0.3-0.3,0.4-0.4l1.6,1.4l-9.3,10.7l-1.6-1.4c0.6-0.8,1-1.5,1.3-2c0.3-0.5,0.4-1,0.4-1.4c-0.1-0.7-0.9-1.8-2.7-3.3l-2.3-2
		c-3-2.6-5.1-4.3-6.4-5.2c-1.3-0.9-2.4-1.5-3.3-1.9c-0.9-0.4-1.9-0.8-2.9-1c-1.9-0.4-4.1-0.3-6.6,0.2c-1,6.3,0.6,11.4,5,15.1
		l6.6,5.7c1.7,1.5,2.9,2.3,3.4,2.3c0.6,0,1.1-0.1,1.5-0.4c0.4-0.3,1-0.7,1.6-1.3l0.5-0.5l1.6,1.4l-9.3,10.7l-1.6-1.4
		c0-0.1,0.1-0.2,0.2-0.4c0.1-0.1,0.3-0.4,0.5-0.8s0.5-0.8,0.7-1.2c0.2-0.4,0.3-0.8,0.3-1.2c-0.1-0.6-0.8-1.6-2.2-2.8l-14-12.1
		c-1.2-1-2-1.5-2.6-1.4c-0.5,0.1-1,0.3-1.5,0.7c-0.5,0.4-1.1,0.9-1.7,1.6l-1.7-1.5l6.3-7.3L326.7,269z"/>
	<path fill="#F1F2F2" d="M372.7,251.2c2.2-2.6,3.5-5.7,3.7-9.3l2-0.2c0.5,3.1-0.1,6.3-1.8,9.5c-0.6,1-1.2,2-2,2.8
		c-2.9,3.4-6.5,5-10.7,4.8c-3.9-0.2-7.6-1.7-11-4.7c-3.5-3.1-5.7-6.5-6.3-10.4c-0.7-4.1,0.4-7.9,3.3-11.3c1.4-1.7,3.2-3,5.2-4
		c0.3-0.1,0.5-0.3,0.6-0.4c0.5-1,0.4-2-0.3-2.9l1.3-1.5l8.4,7.2l-1.4,1.6c-4.5-2.7-8.4-2.2-11.5,1.4c-2,2.3-2.4,5-1.3,8
		c1,2.6,2.9,5.2,5.9,7.7c5.1,4.4,9.6,5.6,13.4,3.5C371.1,252.8,371.9,252.1,372.7,251.2z"/>
	<path fill="#F1F2F2" d="M355,212.2l-0.4-6.6l6.5-0.5l0.5,6.5L355,212.2z M383.4,239.6l0.5-0.8c0.4-0.6,0.7-1.2,0.9-1.6
		c0.2-0.4,0.3-0.8,0.3-1.2c-0.1-0.7-0.9-1.7-2.3-2.9l-13.3-11.5c-1.5-1.3-2.5-1.9-3.1-1.9c-0.6,0-1.1,0.3-1.6,0.6
		c-0.5,0.4-1,0.9-1.8,1.6l-1.7-1.5l9.3-10.7l1.7,1.5c-0.6,0.8-1,1.5-1.3,2c-0.3,0.5-0.4,1-0.4,1.4c0,0.7,0.8,1.7,2.3,3l13.3,11.5
		c1.5,1.3,2.5,1.9,2.9,1.9c0.5,0,0.9-0.1,1.3-0.4c0.4-0.3,0.9-0.6,1.5-1.1l0.8-0.7l1.6,1.4L385,241L383.4,239.6z"/>
	<path fill="#F1F2F2" d="M384.4,202.2c-1.3-3.2-1.5-7-0.4-11.5c3.2-1.2,6-1.8,8.5-1.8c4,0.1,8.4,1.9,13.3,5.4
		c1.7,1.2,3.3,2.5,4.7,3.7s2.5,2.1,3,2.5s1.1,0.6,1.5,0.7c0.4,0.1,0.8,0,1.2-0.3c0.4-0.3,0.7-0.5,1.1-0.8c0.3-0.3,0.6-0.5,0.7-0.6
		s0.3-0.3,0.4-0.4l1.6,1.4l-9.3,10.7l-1.6-1.4c0.6-0.8,1-1.5,1.3-2c0.3-0.5,0.4-1,0.4-1.4c-0.1-0.7-0.9-1.8-2.7-3.3l-2.3-2
		c-3-2.6-5.1-4.3-6.4-5.2c-1.3-0.9-2.4-1.5-3.3-1.9c-0.9-0.4-1.9-0.8-2.9-1c-1.9-0.4-4.1-0.3-6.6,0.2c-1,6.3,0.6,11.4,5,15.1
		l6.6,5.7c1.7,1.5,2.9,2.3,3.4,2.3c0.6,0,1.1-0.1,1.5-0.4c0.4-0.3,1-0.7,1.6-1.3l0.5-0.5l1.6,1.4l-9.3,10.7l-1.6-1.4
		c0-0.1,0.1-0.2,0.2-0.4c0.1-0.1,0.3-0.4,0.5-0.8s0.5-0.8,0.7-1.2s0.3-0.9,0.3-1.2c-0.1-0.6-0.8-1.6-2.2-2.8l-14-12.1
		c-1.2-1-2-1.5-2.6-1.4c-0.5,0.1-1,0.3-1.5,0.7c-0.5,0.4-1.1,0.9-1.7,1.6L374,206l6.3-7.3L384.4,202.2z"/>
	<path fill="#F1F2F2" d="M434.7,179.1c0.3,3.3-0.5,6.1-2.6,8.5c-2.8,3.3-6.3,4.8-10.3,4.5c-3.6-0.2-7.1-1.8-10.5-4.7
		c-3.4-3-5.5-6.4-6.3-10.2c-0.8-4.2,0.3-8.2,3.5-11.9c0.9-1,1.9-2.1,2.9-3.2c2-2,3.3-3.3,3.8-3.8l4.4-5.1l1.7,1.4
		c-1.2,1.6-1.8,2.7-1.7,3.3c0,0.6,0.2,1.1,0.6,1.5s0.8,0.9,1.5,1.4l17.8,15.4c3.4,2.9,5.5,6.4,6.2,10.3c0.8,4.2-0.2,8.1-3.2,11.5
		c-1.5,1.7-3.3,3-5.5,3.9l-1.5-2.6c1.4-0.7,2.7-1.8,3.9-3.2s1.9-2.8,2.2-4.3c0.3-1.5,0.2-2.9-0.2-4.2c-0.8-2.5-2.6-4.9-5.4-7.4
		L434.7,179.1z M415.2,183c6.5,5.7,11.5,6.5,14.9,2.6c1.5-1.7,2.1-3.6,2-5.7c-0.1-2.1-0.9-3.8-2.4-5.1l-10.7-9.2
		c-1.3-1.1-2.4-1.7-3.2-1.7c-1.6,0.1-3.3,1.2-5.2,3.3C406.7,171.7,408.2,177,415.2,183z"/>
	<path fill="#F1F2F2" d="M379.9,278.5c0.4-0.3,0.9-0.8,1.4-1.4s0.9-1.3,1.1-2.1s0.2-1.5,0-2.3c-0.4-1.4-1.4-2.9-3.1-4.4
		c-1.6-1.4-3-2.2-4.2-2.5c-1.6-0.4-3.1,0.3-4.6,2c-1.8,2.1-2.3,3.6-1.4,4.7c0.3,0.3,0.6,0.7,0.9,1l13.2,11.4c0.5,0.4,0.9,0.8,1.3,1
		c0.3,0.2,0.6,0.3,1,0.2s0.6-0.2,1-0.5c0.4-0.3,0.8-0.7,1.4-1.2l0.7-0.7l1.1,0.9l-7.2,8.3l-1.1-0.9c0-0.1,0.1-0.1,0.1-0.2
		s0.2-0.3,0.4-0.5c0.2-0.3,0.3-0.5,0.5-0.8c0.1-0.3,0.2-0.6,0.2-0.9c-0.1-0.5-0.6-1.1-1.6-2l-13.5-11.6c-0.9-0.7-1.5-1.1-1.9-1.1
		c-0.4,0-0.7,0.2-1.1,0.4c-0.3,0.2-0.8,0.6-1.3,1.1l-1.2-1l3-3.5c0.7-0.9,1.4-1.8,2.1-2.7c0.6-0.9,1.5-2,2.4-3.1c1-1.1,2-2,3.1-2.5
		c1.1-0.6,2.2-0.8,3.2-0.8c1.9,0,3.8,0.9,5.8,2.6c2,1.7,3.1,3.6,3.5,5.8c0.4,2.4-0.4,4.8-2.5,7.2c-0.5,0.5-1.1,1.1-1.9,1.6
		L379.9,278.5z"/>
	<path fill="#F1F2F2" d="M390.3,267.5c-0.7-0.6-1.3-1.3-1.9-2c-0.6-0.7-1-1.5-1.4-2.3c-0.4-0.8-0.6-1.6-0.8-2.5
		c-0.2-0.9-0.2-1.7-0.1-2.6c0.2-1.9,1-3.6,2.4-5.1c2-2.4,4.5-3.5,7.4-3.4c2.6,0.1,5.1,1.1,7.3,3.1c2.3,2,3.7,4.3,4.2,6.9
		c0.6,2.9-0.2,5.5-2.2,7.8c-2,2.3-4.5,3.4-7.5,3.3C395,270.5,392.6,269.4,390.3,267.5z M402.1,267.4c0.6-0.3,1.1-0.7,1.7-1.3
		c0.5-0.6,0.9-1.2,1.1-1.8c0.2-0.6,0.3-1.2,0.2-1.9c-0.1-0.6-0.2-1.2-0.5-1.8s-0.6-1.2-1-1.8c-0.7-1-1.5-1.9-2.4-2.7
		c-0.9-0.8-1.7-1.4-2.3-1.8s-1.2-0.8-1.8-1.1c-0.6-0.3-1.2-0.5-1.9-0.7c-0.6-0.2-1.2-0.2-1.8-0.2c-1.3,0.1-2.4,0.7-3.4,1.9
		c-1.8,2.1-1.8,4.5,0.1,7.2c0.7,1,1.7,2.1,2.9,3.1C396.6,267.6,399.6,268.6,402.1,267.4z"/>
	<path fill="#F1F2F2" d="M405.5,239.5c-0.9-2.2-1-4.8-0.2-7.8c2.1-0.8,4.1-1.2,5.7-1.2c2.7,0.1,5.7,1.3,9,3.7
		c1.1,0.8,2.2,1.7,3.2,2.5c1,0.9,1.7,1.4,2.1,1.7c0.4,0.3,0.7,0.4,1,0.5s0.5,0,0.8-0.2c0.3-0.2,0.5-0.4,0.7-0.5
		c0.2-0.2,0.4-0.3,0.5-0.4c0.1-0.1,0.2-0.2,0.3-0.3l1.1,1l-6.3,7.3l-1.1-1c0.4-0.6,0.7-1,0.9-1.4c0.2-0.4,0.3-0.7,0.3-1
		c0-0.5-0.6-1.2-1.8-2.2l-1.5-1.3c-2-1.8-3.5-2.9-4.3-3.5s-1.6-1-2.3-1.3c-0.6-0.3-1.3-0.5-2-0.7c-1.3-0.2-2.8-0.2-4.5,0.1
		c-0.7,4.3,0.4,7.7,3.4,10.3l4.5,3.9c1.2,1,1.9,1.5,2.3,1.6c0.4,0,0.7-0.1,1-0.3s0.7-0.5,1.1-0.9l0.3-0.3l1.1,1l-6.3,7.3l-1.1-0.9
		c0-0.1,0.1-0.2,0.1-0.2s0.2-0.3,0.3-0.5c0.2-0.3,0.3-0.5,0.5-0.8c0.2-0.3,0.2-0.6,0.2-0.8c0-0.4-0.6-1.1-1.5-1.9l-9.5-8.2
		c-0.8-0.7-1.4-1-1.7-1s-0.7,0.2-1,0.4c-0.3,0.3-0.7,0.6-1.2,1.1l-1.1-1l4.3-5L405.5,239.5z"/>
	<path fill="#F1F2F2" d="M438.9,222.7c0.7,2.4,0.7,4.8,0,7.3c-2.1,0.8-4.1,1.2-5.7,1.2c-2.7-0.1-5.7-1.3-9-3.7
		c-1.1-0.8-2.2-1.7-3.2-2.5c-1-0.8-1.7-1.4-2.1-1.7c-0.4-0.3-0.8-0.4-1.1-0.5c-0.3,0-0.6,0-0.9,0.2c-0.3,0.2-0.6,0.4-1,0.8l-1.1-1
		l5.8-6.7l1.1,1l-0.2,0.4c-0.3,0.4-0.5,0.8-0.7,1.1c-0.1,0.3-0.2,0.6-0.1,0.8c0.1,0.4,0.7,1.1,1.8,2.1l1.5,1.3
		c1.4,1.2,2.6,2.2,3.6,3s2,1.4,3,1.9c1.8,0.8,4,1,6.4,0.6c0.7-4.2-0.5-7.6-3.5-10.2l-4.5-3.9c-1.2-1-2-1.6-2.3-1.6
		c-0.4,0-0.7,0.1-0.9,0.2c-0.3,0.2-0.6,0.4-1,0.8l-0.3,0.3l-1.1-1l5.8-6.7l1.1,1l0,0c-0.6,0.8-0.9,1.5-0.8,1.9
		c0.2,0.6,0.8,1.4,2,2.4l5.9,5.1c4,3.4,6.5,6.6,7.7,9.6c1.4,3.6,0.9,7.4-1.5,11.4l-1.6-0.9c1.3-2.6,1.7-5,1.2-7.2
		C442.8,227.5,441.4,225.2,438.9,222.7z"/>
</g>
<g>
	<path fill="#832C30" d="M344.2,372.3c0.9-0.1,1.4-0.2,1.6-0.4s0.3-0.4,0.3-0.6s0.1-0.5,0.1-0.9V356c0-0.8-0.1-1.2-0.4-1.4
		c-0.2-0.1-0.7-0.3-1.6-0.3v-1h6.4v1c-0.9,0.1-1.4,0.2-1.6,0.3c-0.3,0.2-0.4,0.7-0.4,1.5v4.3c0.7-0.8,1.7-1.3,2.9-1.5
		c0.4-0.1,0.8-0.1,1.3-0.1s1,0.1,1.6,0.3s1,0.5,1.5,0.8s0.8,0.7,1.2,1.2s0.6,1,0.8,1.5c0.5,1.1,0.7,2.3,0.7,3.6c0,2-0.6,3.8-1.7,5.2
		c-0.8,1-1.7,1.7-2.9,2.1c-0.6,0.2-1.2,0.3-1.7,0.3c-0.7,0-1.5,0-2.3-0.1c-1.5-0.2-2.4-0.2-2.7-0.2h-3V372.3z M348.6,369.8
		c0,0.7,0.2,1.3,0.6,1.7c0.5,0.5,1.5,0.7,2.8,0.7s2.3-0.6,3-1.9c0.6-1.1,0.9-2.6,0.9-4.4c0-2.6-0.6-4.4-1.8-5.4
		c-0.4-0.4-0.9-0.5-1.5-0.5s-1.1,0.1-1.6,0.3s-0.9,0.4-1.2,0.7c-0.8,0.6-1.2,1.4-1.2,2.3V369.8z"/>
	<path fill="#832C30" d="M370.2,371.1c-0.9,1.4-2.1,2.4-3.7,3.2c-1.4-0.7-2.4-1.5-3.1-2.4c-1.1-1.4-1.8-3.4-2.1-6.2
		c-0.1-0.9-0.1-1.8-0.1-2.7s0-1.4-0.1-1.8s-0.1-0.6-0.2-0.7s-0.3-0.3-0.5-0.4s-0.5-0.1-0.8-0.1v-1h5.9v1l-0.3,0
		c-0.4,0-0.6,0.1-0.8,0.1s-0.4,0.1-0.5,0.3c-0.2,0.2-0.3,0.8-0.3,1.8v1.4c0,1.2,0,2.2,0.1,3.1s0.2,1.7,0.4,2.3
		c0.4,1.3,1.2,2.5,2.5,3.5c2.4-1.5,3.6-3.5,3.6-6.2v-4c0-1.1-0.1-1.7-0.2-1.9s-0.3-0.3-0.5-0.4s-0.5-0.1-0.8-0.2l-0.3,0v-1h5.9v1
		l0,0c-0.7,0.1-1.1,0.2-1.3,0.4c-0.2,0.4-0.4,1-0.4,2.1v5.2c0,3.5-0.5,6.2-1.5,8.1c-1.2,2.3-3.3,3.7-6.4,4.2l-0.2-1.2
		c1.9-0.5,3.3-1.3,4.1-2.6C369.4,375.1,370,373.4,370.2,371.1z"/>
	<path fill="#832C30" d="M384,372.3c0.9-0.1,1.4-0.2,1.6-0.4s0.3-0.4,0.3-0.6s0.1-0.5,0.1-0.9v-12.1c0-0.8-0.1-1.2-0.3-1.4
		s-0.4-0.3-0.7-0.4s-0.6-0.1-1.1-0.2v-1h3c0.5,0,1.1,0,1.7-0.1c1.2-0.1,2.2-0.2,3.1-0.2s1.8,0.1,2.6,0.3s1.5,0.5,2.1,0.8
		c1,0.7,1.6,1.6,1.6,2.9c0,1.6-0.6,2.9-1.8,3.8c-0.4,0.3-0.9,0.6-1.4,0.7c2.3,0.4,3.8,1.3,4.4,2.8c0.2,0.5,0.3,1,0.3,1.7
		s-0.1,1.3-0.4,2s-0.7,1.3-1.4,1.8c-1.4,1.2-3.3,1.7-5.7,1.7c-0.6,0-1.3,0-2-0.1c-1.4-0.2-2.4-0.2-3-0.2h-3V372.3z M388.4,369.8
		c0,0.8,0.2,1.3,0.6,1.7c0.5,0.5,1.6,0.7,3.2,0.7c1.8,0,3.1-0.4,3.9-1.2c0.7-0.7,1-1.6,1-2.7c0-1.7-0.6-2.8-1.9-3.5
		c-0.5-0.3-0.9-0.4-1.4-0.4s-0.8-0.1-1.1-0.1l-0.8,0c-0.3,0-0.5,0-0.8,0s-0.5,0-0.7,0v-1.1l2.4-0.2c1-0.1,1.8-0.5,2.3-1.3
		c0.4-0.6,0.6-1.4,0.6-2.4c0-0.9-0.3-1.6-0.8-2.1c-0.6-0.6-1.7-0.8-3.2-0.8c-1.8,0-2.8,0.5-3,1.5c-0.1,0.3-0.1,0.6-0.1,0.9V369.8z"
		/>
	<path fill="#832C30" d="M406.1,361.3c-0.1,0.2-0.2,0.5-0.2,0.8s0.1,0.7,0.4,1.1l-0.8,0.5c-0.9-0.2-1.6-0.5-2-1.2
		c-0.1-0.2-0.2-0.5-0.2-0.8s0.1-0.7,0.4-1s0.7-0.7,1.1-1c1.1-0.6,2.4-0.9,4.1-0.9c2.7,0,4.3,0.8,5,2.3c0.2,0.5,0.3,1,0.3,1.6v7.3
		c0,0.9,0.1,1.5,0.3,1.6s0.4,0.3,0.6,0.4s0.6,0.1,1,0.1v1h-2.9c-0.6,0-1.2,0-2,0.1c-1.5,0.1-2.7,0.2-3.5,0.2s-1.5-0.1-2.2-0.3
		s-1.1-0.5-1.5-0.9c-0.8-0.7-1.2-1.6-1.2-2.7c0-1.2,0.7-2.2,2-3.2c1.6-1.2,4-1.8,7-1.9v-2.1c0-1.6-1.1-2.4-3.2-2.4
		C407.4,360.1,406.5,360.5,406.1,361.3z M411.8,365.8c-4.2,0.3-6.3,1.6-6.3,3.9c0,1.2,0.6,2,1.9,2.4c0.4,0.1,0.9,0.2,1.5,0.2
		s1.1,0,1.5-0.1s0.7-0.2,0.9-0.4s0.4-0.4,0.4-0.7s0.1-0.7,0.1-1.2V365.8z M411.8,365.8L411.8,365.8L411.8,365.8L411.8,365.8z"/>
	<path fill="#832C30" d="M426.6,363.4c0.4-0.4,0.7-1.1,0.7-1.9c0-0.4-0.2-0.8-0.6-1c-0.3-0.2-0.8-0.3-1.5-0.3
		c-1.5,0-2.2,0.5-2.2,1.5v8.9c0,0.3,0,0.6,0.1,0.8s0.2,0.4,0.5,0.5c0.4,0.2,1.3,0.4,2.8,0.4v1h-7.8v-1l0,0c0.9-0.1,1.5-0.2,1.7-0.4
		s0.3-0.4,0.3-0.6s0.1-0.5,0.1-0.9v-8.1c0-0.9-0.1-1.4-0.3-1.6s-0.4-0.3-0.6-0.4s-0.6-0.1-1-0.2v-1h2.4c1,0,1.6,0,2.1-0.1
		s0.7-0.1,1-0.1c0.7-0.1,1.3-0.1,1.7-0.1s0.9,0,1.4,0.1s0.9,0.2,1.2,0.4c0.8,0.4,1.2,1,1.2,1.7c0,0.6-0.3,1.2-0.8,1.8
		c-0.5,0.5-1,0.9-1.6,1L426.6,363.4z"/>
	<path fill="#832C30" d="M431.8,372.3l0.4-0.1c0.3,0,0.6-0.1,0.8-0.1s0.4-0.1,0.5-0.3c0.2-0.2,0.3-0.8,0.3-1.7v-14.1
		c0-0.9-0.1-1.4-0.3-1.6s-0.4-0.3-0.7-0.3s-0.6-0.1-1.1-0.1v-1h4.4v17.2c0,0.8,0.1,1.3,0.4,1.6c0.2,0.2,0.7,0.3,1.4,0.4l0.6,0.1v1
		h-6.8V372.3z"/>
	<path fill="#832C30" d="M439.8,372.3l0.4-0.1c0.3,0,0.6-0.1,0.8-0.1s0.4-0.1,0.5-0.3c0.2-0.2,0.3-0.8,0.3-1.7v-7.9
		c0-0.9-0.1-1.4-0.3-1.6s-0.4-0.3-0.7-0.3s-0.6-0.1-1.1-0.1v-1h6.4v1c-0.4,0-0.8,0.1-1.1,0.1s-0.5,0.1-0.6,0.3
		c-0.2,0.2-0.3,0.8-0.3,1.7v7.9c0,0.9,0.1,1.4,0.2,1.6s0.3,0.3,0.5,0.3s0.5,0.1,0.8,0.2l0.5,0.1v1h-6.4V372.3z M440.8,354.4l2.1-2.1
		l2.1,2.1l-2.1,2.1L440.8,354.4z"/>
	<path fill="#832C30" d="M448.5,372.3l0.3,0c0.7-0.1,1.2-0.2,1.3-0.4s0.2-0.4,0.3-0.6s0.1-0.6,0.1-1v-8.4c0-0.7-0.1-1.1-0.3-1.3
		s-0.4-0.3-0.7-0.3s-0.6-0.1-1.1-0.1v-1h4.4v2.4c0.3-0.7,0.7-1.3,1.1-1.7c0.7-0.7,1.5-1.3,2.5-1.8c1,0.6,1.7,1.1,2.2,1.6
		c0.8,0.8,1.4,1.7,1.8,2.7c0.6-1.3,1.6-2.4,2.9-3.3c0.4-0.3,0.9-0.6,1.4-1c1.5,0.8,2.6,1.7,3.4,2.5c1.2,1.4,1.9,3.4,2.1,6
		c0.1,0.9,0.1,1.8,0.1,2.7s0,1.5,0.1,1.8s0.1,0.6,0.2,0.7s0.3,0.3,0.5,0.3s0.4,0.1,0.8,0.2l0.4,0.1v1h-6.4v-1
		c0.4-0.1,0.8-0.1,1.1-0.2s0.5-0.1,0.6-0.3c0.2-0.2,0.4-0.9,0.4-1.9l0-1.8c0-2.2-0.2-3.9-0.6-5c-0.4-1.2-1.3-2.4-2.6-3.5
		c-1,0.8-1.7,1.6-2.1,2.5s-0.7,1.8-0.8,2.7c-0.2,1.4-0.2,2.7-0.2,4s0,2.1,0.1,2.3s0.1,0.4,0.3,0.5c0.2,0.2,0.6,0.3,1.4,0.4l0.3,0v1
		h-6.4v-1c0.4-0.1,0.8-0.1,1.1-0.2s0.5-0.1,0.6-0.3c0.2-0.2,0.3-0.8,0.3-1.8v-1.4c0-2.5-0.1-4.2-0.4-5.1s-0.6-1.6-0.9-2.2
		s-0.9-1.1-1.5-1.6c-1.1,0.7-1.9,1.4-2.4,2.3c-0.7,1.1-1.1,2.4-1.1,3.9v4c0,1,0.1,1.6,0.2,1.9s0.3,0.3,0.6,0.4s0.5,0.1,0.9,0.2
		l0.3,0v1h-6.4V372.3z"/>
	<path fill="#832C30" d="M477.9,361.3c-0.1,0.2-0.2,0.5-0.2,0.8s0.1,0.7,0.4,1.1l-0.8,0.5c-0.9-0.2-1.6-0.5-2-1.2
		c-0.1-0.2-0.2-0.5-0.2-0.8s0.1-0.7,0.4-1s0.7-0.7,1.1-1c1.1-0.6,2.4-0.9,4.1-0.9c2.7,0,4.3,0.8,5,2.3c0.2,0.5,0.3,1,0.3,1.6v7.3
		c0,0.9,0.1,1.5,0.3,1.6s0.4,0.3,0.6,0.4s0.6,0.1,1,0.1v1h-2.9c-0.6,0-1.2,0-2,0.1c-1.5,0.1-2.7,0.2-3.5,0.2s-1.5-0.1-2.2-0.3
		s-1.1-0.5-1.5-0.9c-0.8-0.7-1.2-1.6-1.2-2.7c0-1.2,0.7-2.2,2-3.2c1.6-1.2,4-1.8,7-1.9v-2.1c0-1.6-1.1-2.4-3.2-2.4
		C479.2,360.1,478.4,360.5,477.9,361.3z M483.7,365.8c-4.2,0.3-6.3,1.6-6.3,3.9c0,1.2,0.6,2,1.9,2.4c0.4,0.1,0.9,0.2,1.5,0.2
		s1.1,0,1.5-0.1s0.7-0.2,0.9-0.4s0.4-0.4,0.4-0.7s0.1-0.7,0.1-1.2V365.8z M483.7,365.8L483.7,365.8L483.7,365.8L483.7,365.8z"/>
	<path fill="#832C30" d="M494.8,361.5c0.7-1.4,2-2.6,3.8-3.5c1.4,0.7,2.4,1.5,3.1,2.4c1.1,1.4,1.8,3.4,2.1,6.2
		c0.1,0.9,0.1,1.8,0.1,2.7s0,1.5,0,1.8s0.1,0.5,0.2,0.7s0.3,0.3,0.4,0.3s0.4,0.1,0.6,0.1s0.3,0,0.4,0.1s0.2,0,0.3,0v1h-6.4v-1
		c0.4-0.1,0.8-0.1,1.1-0.2s0.5-0.1,0.6-0.3c0.2-0.2,0.3-0.9,0.3-1.9v-1.4c0-1.8,0-3-0.1-3.7s-0.2-1.3-0.3-1.7s-0.3-0.9-0.5-1.3
		c-0.4-0.8-1.1-1.5-2-2.2c-2.5,1.5-3.7,3.6-3.7,6.2v4c0,1,0.1,1.6,0.2,1.9s0.3,0.3,0.6,0.4s0.5,0.1,0.9,0.2l0.3,0v1h-6.4v-1
		c0,0,0.1,0,0.2,0s0.2,0,0.4,0s0.4-0.1,0.6-0.1s0.4-0.1,0.5-0.3c0.2-0.2,0.3-0.7,0.3-1.6v-8.4c0-0.7-0.1-1.1-0.3-1.3
		s-0.4-0.3-0.7-0.3s-0.6-0.1-1.1-0.1v-1h4.4V361.5z"/>
	<path fill="#832C30" d="M344.1,401.1c0.9-0.1,1.4-0.2,1.6-0.4s0.3-0.4,0.3-0.6s0.1-0.5,0.1-0.9V387c0-0.8-0.1-1.2-0.3-1.4
		s-0.4-0.3-0.7-0.4s-0.6-0.1-1.1-0.2v-1h3c0.5,0,1.1,0,1.7-0.1c1.2-0.1,2.2-0.2,3.1-0.2s1.8,0.1,2.6,0.3s1.5,0.5,2.1,0.8
		c1,0.7,1.6,1.6,1.6,2.9c0,1.6-0.6,2.9-1.8,3.8c-0.4,0.3-0.9,0.6-1.4,0.7c2.3,0.4,3.8,1.3,4.4,2.8c0.2,0.5,0.3,1,0.3,1.7
		s-0.1,1.3-0.4,2s-0.7,1.3-1.4,1.8c-1.4,1.2-3.3,1.7-5.7,1.7c-0.6,0-1.3,0-2-0.1c-1.4-0.2-2.4-0.2-3-0.2h-3V401.1z M348.5,398.6
		c0,0.8,0.2,1.3,0.6,1.7c0.5,0.5,1.6,0.7,3.2,0.7c1.8,0,3.1-0.4,3.9-1.2c0.7-0.7,1-1.6,1-2.7c0-1.7-0.6-2.8-1.9-3.5
		c-0.5-0.3-0.9-0.4-1.4-0.4s-0.8-0.1-1.1-0.1l-0.8,0c-0.3,0-0.5,0-0.8,0s-0.5,0-0.7,0v-1.1l2.4-0.2c1-0.1,1.8-0.5,2.3-1.3
		c0.4-0.6,0.6-1.4,0.6-2.4c0-0.9-0.3-1.6-0.8-2.1c-0.6-0.6-1.7-0.8-3.2-0.8c-1.8,0-2.8,0.5-3,1.5c-0.1,0.3-0.1,0.6-0.1,0.9V398.6z"
		/>
	<path fill="#832C30" d="M368.9,402.7c-1.5-0.9-2.6-1.7-3.3-2.5c-1.2-1.4-2-3.3-2.2-5.9c-0.1-0.9-0.1-1.8-0.1-2.6s0-1.3,0-1.6
		s-0.1-0.5-0.2-0.7c-0.2-0.3-0.7-0.5-1.4-0.6v-1h5.8v1c-0.8,0.1-1.3,0.3-1.5,0.5c-0.2,0.2-0.3,0.8-0.3,1.6s0,1.7,0,2.4
		s0.1,1.4,0.2,2s0.2,1.1,0.3,1.6s0.3,0.9,0.6,1.3c0.5,0.8,1.2,1.6,2.2,2.6c1-0.9,1.7-1.7,2-2.3s0.6-1.1,0.7-1.6s0.3-1,0.3-1.6
		c0.1-1,0.2-2.1,0.2-3.3s0-1.9,0-2.2s-0.1-0.4-0.2-0.6c-0.2-0.3-0.7-0.4-1.5-0.5v-1h5.7v1c-0.8,0.1-1.2,0.3-1.3,0.5
		s-0.2,0.4-0.2,0.7s0,0.8,0,1.6s0,1.7-0.1,2.6s-0.2,1.7-0.4,2.5s-0.4,1.4-0.7,1.9s-0.7,1.1-1.1,1.5
		C371.5,400.9,370.4,401.8,368.9,402.7z"/>
	<path fill="#832C30" d="M378.8,401.1c0.4-0.1,0.6-0.1,0.8-0.2s0.4-0.2,0.5-0.3c0.2-0.2,0.3-0.8,0.3-1.8v-9.5h-2v-1.1
		c1.1-0.2,1.8-0.3,2-0.5h0c0.2-0.2,0.3-0.8,0.5-1.6s0.2-1.4,0.2-1.8l1.7-0.7v4.2h4.2v1.4h-4.2v9.5c0,0.7,0.1,1.2,0.2,1.4
		s0.2,0.3,0.4,0.4s0.4,0.2,0.6,0.2c0.4,0.1,1.2,0.1,2.4,0.1v1.1h-7.5V401.1z"/>
	<path fill="#832C30" d="M388.8,401.1c0.4-0.1,0.6-0.1,0.8-0.2s0.4-0.2,0.5-0.3c0.2-0.2,0.3-0.8,0.3-1.8v-9.5h-2v-1.1
		c1.1-0.2,1.8-0.3,2-0.5h0c0.2-0.2,0.3-0.8,0.5-1.6s0.2-1.4,0.2-1.8l1.7-0.7v4.2h4.2v1.4h-4.2v9.5c0,0.7,0.1,1.2,0.2,1.4
		s0.2,0.3,0.4,0.4s0.4,0.2,0.6,0.2c0.4,0.1,1.2,0.1,2.4,0.1v1.1h-7.5V401.1z"/>
	<path fill="#832C30" d="M409.5,400.3c-1.1,1.3-2.7,2-4.8,2c-2.1,0-3.7-0.7-4.8-2c-1.1-1.3-1.7-3-1.7-5.1c0-2.2,0.6-4,1.9-5.4
		c1.2-1.4,2.8-2.1,4.7-2.1c1.5,0,2.6,0.3,3.5,0.9c0.8,0.6,1.2,1.4,1.2,2.4c0,1.3-0.6,2.4-1.9,3.3c-1.5,1.1-3.8,1.6-6.8,1.6
		c0.3,3.2,1.7,4.8,4.3,4.8c1.6,0,2.9-0.4,3.8-1.1L409.5,400.3z M400.7,394.7c2.8-0.1,4.7-0.7,5.6-2c0.4-0.5,0.5-1.1,0.5-1.7
		c0-0.9-0.4-1.5-1.2-1.9c-0.3-0.1-0.7-0.2-1.1-0.2s-0.9,0.1-1.2,0.2s-0.7,0.4-0.9,0.7s-0.5,0.6-0.7,1s-0.4,0.8-0.5,1.2
		C400.8,392.9,400.7,393.8,400.7,394.7z"/>
	<path fill="#832C30" d="M420.8,392.2c0.4-0.4,0.7-1.1,0.7-1.9c0-0.4-0.2-0.8-0.6-1c-0.3-0.2-0.8-0.3-1.5-0.3
		c-1.5,0-2.2,0.5-2.2,1.5v8.9c0,0.3,0,0.6,0.1,0.8s0.2,0.4,0.5,0.5c0.4,0.2,1.3,0.4,2.8,0.4v1h-7.8v-1l0,0c0.9-0.1,1.5-0.2,1.7-0.4
		s0.3-0.4,0.3-0.6s0.1-0.5,0.1-0.9v-8.1c0-0.9-0.1-1.4-0.3-1.6s-0.4-0.3-0.6-0.4s-0.6-0.1-1-0.2v-1h2.4c1,0,1.6,0,2.1-0.1
		s0.7-0.1,1-0.1c0.7-0.1,1.3-0.1,1.7-0.1s0.9,0,1.4,0.1s0.9,0.2,1.2,0.4c0.8,0.4,1.2,1,1.2,1.7c0,0.6-0.3,1.2-0.8,1.8
		c-0.5,0.5-1,0.9-1.6,1L420.8,392.2z"/>
	<path fill="#832C30" d="M426.1,401.1c0.9-0.1,1.4-0.2,1.6-0.4s0.3-0.4,0.3-0.6s0.1-0.5,0.1-0.9v-14.4c0-0.8-0.1-1.2-0.4-1.4
		c-0.2-0.1-0.7-0.3-1.6-0.3v-1h6.4v1c-0.9,0.1-1.4,0.2-1.6,0.3c-0.3,0.2-0.4,0.7-0.4,1.5v4.3c0.7-0.8,1.7-1.3,2.9-1.5
		c0.4-0.1,0.8-0.1,1.3-0.1s1,0.1,1.6,0.3s1,0.5,1.5,0.8s0.8,0.7,1.2,1.2s0.6,1,0.8,1.5c0.5,1.1,0.7,2.3,0.7,3.6c0,2-0.6,3.8-1.7,5.2
		c-0.8,1-1.7,1.7-2.9,2.1c-0.6,0.2-1.2,0.3-1.7,0.3c-0.7,0-1.5,0-2.3-0.1c-1.5-0.2-2.4-0.2-2.7-0.2h-3V401.1z M430.6,398.6
		c0,0.7,0.2,1.3,0.6,1.7c0.5,0.5,1.5,0.7,2.8,0.7s2.3-0.6,3-1.9c0.6-1.1,0.9-2.6,0.9-4.4c0-2.6-0.6-4.4-1.8-5.4
		c-0.4-0.4-0.9-0.5-1.5-0.5s-1.1,0.1-1.6,0.3s-0.9,0.4-1.2,0.7c-0.8,0.6-1.2,1.4-1.2,2.3V398.6z"/>
	<path fill="#832C30" d="M448.9,402.7c-1.5-0.9-2.6-1.7-3.3-2.5c-1.2-1.4-2-3.3-2.2-5.9c-0.1-0.9-0.1-1.8-0.1-2.6s0-1.3,0-1.6
		s-0.1-0.5-0.2-0.7c-0.2-0.3-0.7-0.5-1.4-0.6v-1h5.8v1c-0.8,0.1-1.3,0.3-1.5,0.5c-0.2,0.2-0.3,0.8-0.3,1.6s0,1.7,0,2.4
		s0.1,1.4,0.2,2s0.2,1.1,0.3,1.6s0.3,0.9,0.6,1.3c0.5,0.8,1.2,1.6,2.2,2.6c1-0.9,1.7-1.7,2-2.3s0.6-1.1,0.7-1.6s0.3-1,0.3-1.6
		c0.1-1,0.2-2.1,0.2-3.3s0-1.9,0-2.2s-0.1-0.4-0.2-0.6c-0.2-0.3-0.7-0.4-1.5-0.5v-1h5.7v1c-0.8,0.1-1.2,0.3-1.3,0.5
		s-0.2,0.4-0.2,0.7s0,0.8,0,1.6s0,1.7-0.1,2.6s-0.2,1.7-0.4,2.5s-0.4,1.4-0.7,1.9s-0.7,1.1-1.1,1.5
		C451.5,400.9,450.4,401.8,448.9,402.7z"/>
	<path fill="#832C30" d="M466.7,392.2c0.4-0.4,0.7-1.1,0.7-1.9c0-0.4-0.2-0.8-0.6-1c-0.3-0.2-0.8-0.3-1.5-0.3
		c-1.5,0-2.2,0.5-2.2,1.5v8.9c0,0.3,0,0.6,0.1,0.8s0.2,0.4,0.5,0.5c0.4,0.2,1.3,0.4,2.8,0.4v1h-7.8v-1l0,0c0.9-0.1,1.5-0.2,1.7-0.4
		s0.3-0.4,0.3-0.6s0.1-0.5,0.1-0.9v-8.1c0-0.9-0.1-1.4-0.3-1.6s-0.4-0.3-0.6-0.4s-0.6-0.1-1-0.2v-1h2.4c1,0,1.6,0,2.1-0.1
		s0.7-0.1,1-0.1c0.7-0.1,1.3-0.1,1.7-0.1s0.9,0,1.4,0.1s0.9,0.2,1.2,0.4c0.8,0.4,1.2,1,1.2,1.7c0,0.6-0.3,1.2-0.8,1.8
		c-0.5,0.5-1,0.9-1.6,1L466.7,392.2z"/>
</g>
</svg>
