<?xml version="1.0" encoding="utf-8"?>
<!-- Generator: Adobe Illustrator 18.1.1, SVG Export Plug-In . SVG Version: 6.00 Build 0)  -->
<svg version="1.1" id="Layer_1" xmlns="http://www.w3.org/2000/svg" xmlns:xlink="http://www.w3.org/1999/xlink" x="0px" y="0px"
	 viewBox="0 0 2261.2 241.8" enable-background="new 0 0 2261.2 241.8" xml:space="preserve">
<g opacity="0.5">
	<path fill="#AD1F23" d="M132.3,70.1c1.5-7.7,2.2-13.3,2.2-16.8c0-3.6-0.4-6.3-1.3-8.3c-0.9-2-2.3-3.6-4.4-4.7
		c-3.5-2-10.2-3.1-20-3.1H91.1v117.5c0,3.9,0.2,7,0.7,9.2c0.5,2.2,1.7,3.9,3.6,5c1.9,1.2,4.7,2,8.5,2.5c3.8,0.5,8.9,1.1,15.4,1.7
		v8.8H42.4v-8.8c12.4-1.2,19.8-2.4,22.1-3.9c2.3-1.4,3.7-3.2,4.3-5.4c0.6-2.2,0.9-5.3,0.9-9.2V37.1H49.5c-12.6,0-21.8,6-27.4,17.9
		c-1.8,3.7-3.5,7.6-5.3,11.8L15.6,70H5.3l11.8-43.6h136.4l-11.1,43.7H132.3z"/>
	<path fill="#AD1F23" d="M216.9,80.3c6.3-12,18-22.2,35.1-30.5c12.2,6.3,21.5,13.2,27.8,20.6c10.3,12.2,16.6,30,18.7,53.4
		c0.7,8.2,1.1,16.1,1.1,23.7c0,7.6,0.1,12.8,0.4,15.5c0.2,2.7,0.8,4.7,1.7,6.1c0.9,1.4,2.2,2.3,3.9,2.7c1.7,0.4,3.4,0.8,5.2,1.1
		c1.7,0.3,2.9,0.4,3.7,0.5c0.7,0,1.5,0.1,2.2,0.3v8.4h-57.2v-8.4c4-0.5,7.2-0.9,9.6-1.4c2.4-0.4,4.2-1.3,5.5-2.5
		c2-2,3.1-7.4,3.1-16.4v-11.9c0-15.4-0.4-26.1-1.2-32.2c-0.8-6.1-1.7-11-2.9-14.9c-1.2-3.9-2.7-7.5-4.7-11
		c-3.7-6.4-9.7-12.9-17.8-19.2c-10.5,6.2-18.2,12.5-23.3,19c-7.2,9.4-10.8,20.9-10.8,34.7v34.5c0,4.7,0.1,8.3,0.4,10.9
		c0.3,2.6,1,4.6,2.3,6c1.2,1.4,3.1,2.3,5.5,2.8s5.8,1,10.1,1.6v8.4h-57.8v-8.3l0.2-0.1c4.1-0.5,7.4-1,9.8-1.5
		c2.4-0.5,4.2-1.4,5.4-2.6c1.8-1.9,2.7-6.6,2.7-14V32.1c0-7.5-0.8-12-2.5-13.5c-1.6-1.5-3.7-2.5-6.1-2.9c-2.4-0.4-5.6-0.8-9.6-1.2V6
		h57.8v8.5c-3.9,0.4-7.1,0.8-9.5,1.2c-2.4,0.4-4.2,1.2-5.5,2.2c-2.2,1.8-3.3,6.5-3.3,14.1V80.3z"/>
	<path fill="#AD1F23" d="M435.4,166.8c-9.6,11.5-24,17.2-43.3,17.2c-18.5,0-33-5.8-43.5-17.4c-10-11.2-15.1-26-15.1-44.4
		c0-18.9,5.6-34.6,16.7-46.9c11.1-12.2,25.3-18.3,42.6-18.3c13.3,0,23.6,2.7,31.1,8.1c7.1,5.1,10.6,12.1,10.6,21
		c0,11.5-5.8,21.1-17.3,29c-13.4,9.2-33.7,13.8-60.8,14c2.5,27.7,15.4,41.6,39,41.6c14.7,0,26-3.3,33.9-9.8L435.4,166.8z
		 M356.2,118.3c25-0.5,41.9-6.2,50.7-17.2c3.2-4.1,4.8-9.1,4.8-15.2c0-7.9-3.5-13.3-10.5-16.3c-2.7-1.2-6.1-1.7-10.2-1.7
		c-4.1,0-7.7,0.7-10.8,2.1c-3.2,1.4-6,3.3-8.5,5.7c-2.5,2.4-4.7,5.2-6.6,8.4c-1.9,3.2-3.5,6.7-4.7,10.4
		C357.7,102.3,356.4,110.2,356.2,118.3z"/>
	<path fill="#AD1F23" d="M585.5,116.1c2.9,0.5,6.9,0.8,11.9,0.8c5,0,9.6-1,13.9-3.1c4.2-2,7.7-4.9,10.4-8.5c5.1-7.1,7.7-17,7.7-29.9
		c0-12.4-1.6-21.6-4.9-27.7c-4.6-8.3-13.6-12.5-26.8-12.5c-16.3,0-25.2,3.8-26.8,11.5c-0.5,2.4-0.7,5-0.7,7.7v100.7
		c0,3.9,0.2,7,0.6,9.2c0.4,2.2,1.3,3.8,2.7,5c1.4,1.2,3.5,2,6.2,2.4c2.7,0.4,6.3,0.9,10.9,1.4l5.8,0.6v8.3h-65.7v-8.3
		c0.4-0.1,0.9-0.2,1.6-0.3c0.7,0,1.9-0.2,3.7-0.4c1.8-0.2,3.6-0.6,5.5-1.1c1.9-0.5,3.4-1.3,4.5-2.5c1.9-2.1,2.8-6.8,2.8-14.2v-103
		c0-6.6-0.8-10.6-2.4-12.2c-1.6-1.6-3.6-2.6-6-3.3s-5.7-1.1-9.8-1.4v-8.9h27.4c6.8,0,13.6-0.4,20.5-1.1c6.8-0.7,14.7-1.1,23.6-1.1
		c8.9,0,16.8,1.4,23.7,4.1c6.9,2.7,12.5,6.4,16.5,11c7.3,8.3,10.9,19.9,10.9,34.9c0,15.2-4.1,27.5-12.4,37
		c-9.5,10.9-23.6,16.4-42.2,16.4c-4.3,0-9.2-0.7-14.8-2L585.5,116.1z"/>
	<path fill="#AD1F23" d="M751.8,96c3.9-3.7,5.9-9.2,5.9-16.7c0-3.7-1.8-6.5-5.4-8.6c-3-1.7-7.6-2.5-13.8-2.5c-13.3,0-20,4.2-20,12.6
		v77.3c0,2.9,0.3,5.3,0.9,7.2c0.6,1.9,1.9,3.4,4.1,4.6c3.6,2,12.1,3.3,25.3,3.7v8.4h-70.3v-8.3l0.2-0.1c8.3-0.8,13.2-1.9,14.9-3.4
		c1.6-1.5,2.7-3.2,3.1-5.1c0.4-1.9,0.6-4.5,0.6-7.8V86.8c0-7.4-0.8-12-2.3-13.7c-1.5-1.8-3.4-3-5.5-3.7c-2.2-0.7-5.1-1.2-8.6-1.6
		v-8.6h21.8c8.6,0,14.8-0.2,18.4-0.5c3.6-0.3,6.5-0.6,8.6-0.7c6.3-0.5,11.5-0.8,15.4-0.8c4,0,8.1,0.3,12.3,0.9
		c4.2,0.6,7.9,1.7,11.2,3.2c7.1,3.3,10.6,8.3,10.6,15.2c0,5.5-2.3,10.6-6.9,15.4c-4.4,4.5-9.2,7.4-14.5,8.9L751.8,96z"/>
	<path fill="#AD1F23" d="M836.5,78c-1.2,2.1-1.8,4.5-1.8,7.3s1.3,6.1,4,9.9l-7.2,4.2c-8.3-1.4-14.3-4.7-18-10.1
		c-1.3-1.8-2-4.2-2-7.1c0-2.9,1.2-6,3.7-9.1c2.5-3.2,5.9-5.9,10.3-8.3c9.7-5.2,21.9-7.7,36.6-7.7c24,0,38.9,6.7,44.7,20.1
		c1.8,4.2,2.7,8.8,2.7,13.9v63.8c0,7.9,0.8,12.6,2.3,14.2c1.5,1.6,3.4,2.6,5.6,3.1c2.2,0.5,5.2,0.9,8.9,1.2v8.5h-26.1
		c-5.2,0-11.1,0.3-17.8,0.8c-13.7,1.2-24.2,1.8-31.6,1.8c-7.4,0-13.9-1-19.5-2.8c-5.6-1.9-10.2-4.4-13.8-7.5
		c-6.9-6-10.4-13.7-10.4-23.1c0-10.1,6.1-19.4,18.2-28c14.6-10.4,35.5-15.9,62.8-16.5V88.9c0-14.1-9.7-21.2-29.2-21.2
		C848.1,67.7,840.6,71.2,836.5,78z M888.4,117.3c-38,2.2-57,13.5-57,33.9c0,10.8,5.6,17.7,16.9,20.9c3.5,1,7.9,1.5,13.2,1.5
		c5.3,0,9.7-0.3,13.4-0.9c3.7-0.6,6.5-1.6,8.5-3.1c2-1.5,3.3-3.5,3.9-6.2c0.6-2.6,0.9-6,0.9-10.1V117.3z M888.4,117.3h0.2l-0.2-0.1
		V117.3z"/>
	<path fill="#AD1F23" d="M988.1,80.3c6.4-12.3,17.8-22.4,34.3-30.5c12.1,6.2,21.5,13.1,28,20.5c10.3,12,16.6,29.8,18.7,53.5
		c0.7,8.1,1.1,16,1.1,23.6c0,7.6,0.1,12.8,0.4,15.5c0.3,2.7,0.9,4.8,1.8,6.2c0.9,1.4,2.2,2.3,4,2.7c1.8,0.4,3.5,0.8,5.3,1.1
		c1.8,0.3,3,0.4,3.7,0.5c0.7,0,1.5,0.1,2.3,0.3v8.4h-57.6v-8.4c4-0.5,7.2-0.9,9.6-1.4c2.4-0.4,4.2-1.3,5.5-2.5c2-2,3.1-7.4,3.1-16.4
		v-11.8c0-15.5-0.4-26.3-1.2-32.3c-0.8-6-1.7-11-2.9-14.9c-1.2-3.9-2.7-7.6-4.7-11c-3.9-6.5-9.9-12.9-18.1-19.2
		c-22.2,13.2-33.3,31.1-33.3,53.7v34.5c0,9,0.7,14.3,2.1,16.1c1.4,1.8,3.1,2.9,5.1,3.4c2,0.5,4.8,1,8.3,1.5l2.7,0.3v8.4h-57.6v-8.3
		c0.4-0.2,1-0.3,1.6-0.4c0.7,0,1.9-0.2,3.7-0.4c1.8-0.2,3.6-0.6,5.6-1.1c1.9-0.5,3.4-1.3,4.5-2.4c1.8-1.8,2.6-6.4,2.6-13.8V83
		c0-6.2-0.8-10-2.4-11.3c-1.6-1.4-3.6-2.3-6-2.7c-2.4-0.4-5.6-0.8-9.6-1.1v-8.7h39.4V80.3z"/>
	<path fill="#AD1F23" d="M1165.5,171.4c13.9,0,26.7-4.4,38.4-13.1l6,5.6c-8.2,9.6-19.6,16-34.2,19.1c-4.6,0.9-9.3,1.4-13.9,1.4
		c-18.2,0-32.6-6.5-43.4-19.5c-9.9-12.1-14.8-27.1-14.8-44.8c0-18.4,5-33.6,15.1-45.6c10.8-12.8,25.3-19.2,43.6-19.2
		c9,0,17.6,1.7,26,5.2c1.3,0.5,2.2,0.8,2.7,0.9c4.6-1.2,7.3-3.9,8.1-8.2h8.3v43.5h-8.7c-3.8-20.4-15.4-30.6-34.8-30.6
		c-12.5,0-21.9,5.6-28.1,16.8c-5.4,9.5-8.1,22-8.1,37.4c0,26.5,8.3,42.9,24.9,49C1156.2,170.7,1160.5,171.4,1165.5,171.4z"/>
	<path fill="#AD1F23" d="M1229.4,173.5l3.7-0.5c3-0.4,5.5-0.8,7.4-1.3c1.9-0.4,3.4-1.2,4.4-2.4c1.8-2.1,2.7-6.9,2.7-14.4V86
		c0-7.7-0.8-12.4-2.5-14c-1.7-1.6-3.7-2.6-6.1-3c-2.4-0.4-5.6-0.8-9.6-1.1v-8.7h57.6v8.7c-4,0.4-7.2,0.8-9.6,1.2
		c-2.4,0.4-4.2,1.2-5.5,2.3c-2,1.8-3.1,6.7-3.1,14.5v69c0,7.7,0.6,12.3,1.9,13.7c1.3,1.4,2.8,2.4,4.7,2.8c1.9,0.5,4.3,1,7.4,1.4
		l4.1,0.6v8.4h-57.6V173.5z M1238.1,18.5l19.2-18.2l18.7,18.2l-18.7,18.4L1238.1,18.5z"/>
	<path fill="#AD1F23" d="M1347.4,80.3c6.4-12.3,17.8-22.4,34.3-30.5c12.1,6.2,21.5,13.1,28,20.5c10.3,12,16.6,29.8,18.7,53.5
		c0.7,8.1,1.1,16,1.1,23.6c0,7.6,0.1,12.8,0.4,15.5c0.3,2.7,0.9,4.8,1.8,6.2c0.9,1.4,2.2,2.3,4,2.7c1.8,0.4,3.5,0.8,5.3,1.1
		c1.8,0.3,3,0.4,3.7,0.5c0.7,0,1.5,0.1,2.3,0.3v8.4h-57.6v-8.4c4-0.5,7.2-0.9,9.6-1.4c2.4-0.4,4.2-1.3,5.5-2.5c2-2,3.1-7.4,3.1-16.4
		v-11.8c0-15.5-0.4-26.3-1.2-32.3c-0.8-6-1.7-11-2.9-14.9c-1.2-3.9-2.7-7.6-4.7-11c-3.9-6.5-9.9-12.9-18.1-19.2
		c-22.2,13.2-33.3,31.1-33.3,53.7v34.5c0,9,0.7,14.3,2.1,16.1c1.4,1.8,3.1,2.9,5.1,3.4c2,0.5,4.8,1,8.3,1.5l2.7,0.3v8.4H1308v-8.3
		c0.4-0.2,1-0.3,1.6-0.4c0.7,0,1.9-0.2,3.7-0.4c1.8-0.2,3.6-0.6,5.6-1.1c1.9-0.5,3.4-1.3,4.5-2.4c1.8-1.8,2.6-6.4,2.6-13.8V83
		c0-6.2-0.8-10-2.4-11.3c-1.6-1.4-3.6-2.3-6-2.7c-2.4-0.4-5.6-0.8-9.6-1.1v-8.7h39.4V80.3z"/>
	<path fill="#AD1F23" d="M1551.9,170.4c-9.1,9.4-20.1,14-32.9,14c-17.7,0-31.5-6.3-41.4-19c-8.8-11.3-13.3-25.7-13.3-43.2
		c0-17.8,4.9-32.8,14.6-45c10.8-13.4,26.1-20.1,45.9-20.1c5.6,0,11.5,0.2,17.6,0.6c11.6,0.9,18.9,1.3,21.8,1.3h27.3v8.6
		c-8,0.5-12.8,1.6-14.5,3.3c-1.7,1.7-2.7,3.5-3.1,5.6c-0.4,2.1-0.5,4.7-0.5,8v92.3c0,17.6-5,32.6-15.1,44.9
		c-10.9,13.4-25.5,20-43.9,20c-9.2,0-18.1-2-26.6-6.1l4.1-11c6,2.3,12.8,3.5,20.3,3.5c7.5,0,13.8-1.5,19-4.4s9.3-6.8,12.4-11.5
		c5.5-8.7,8.3-20.4,8.3-35.1V170.4z M1488.2,122.2c0,34,10.5,51,31.6,51c9.1,0,16.8-2.8,22.9-8.5c6.1-5.6,9.2-12.4,9.2-20.3V88.8
		c0-6.8-1.2-11.5-3.5-13.8c-4.5-4.6-12.5-6.9-24-6.9C1500.3,68.1,1488.2,86.1,1488.2,122.2z"/>
	<path fill="#AD1F23" d="M1734.2,116.1c2.9,0.5,6.9,0.8,11.9,0.8c5,0,9.6-1,13.9-3.1c4.2-2,7.7-4.9,10.4-8.5
		c5.1-7.1,7.7-17,7.7-29.9c0-12.4-1.6-21.6-4.9-27.7c-4.6-8.3-13.6-12.5-26.8-12.5c-16.3,0-25.2,3.8-26.8,11.5
		c-0.5,2.4-0.7,5-0.7,7.7v100.7c0,3.9,0.2,7,0.6,9.2c0.4,2.2,1.3,3.8,2.7,5c1.4,1.2,3.5,2,6.2,2.4c2.7,0.4,6.3,0.9,10.9,1.4l5.8,0.6
		v8.3h-65.7v-8.3c0.3-0.1,0.9-0.2,1.6-0.3c0.7,0,1.9-0.2,3.7-0.4c1.8-0.2,3.6-0.6,5.5-1.1c1.9-0.5,3.4-1.3,4.5-2.5
		c1.9-2.1,2.8-6.8,2.8-14.2v-103c0-6.6-0.8-10.6-2.4-12.2c-1.6-1.6-3.6-2.6-6-3.3c-2.4-0.6-5.7-1.1-9.8-1.4v-8.9h27.4
		c6.8,0,13.6-0.4,20.5-1.1c6.8-0.7,14.7-1.1,23.6-1.1c8.9,0,16.8,1.4,23.7,4.1c6.9,2.7,12.5,6.4,16.5,11
		c7.3,8.3,10.9,19.9,10.9,34.9c0,15.2-4.1,27.5-12.4,37c-9.5,10.9-23.6,16.4-42.2,16.4c-4.3,0-9.2-0.7-14.8-2L1734.2,116.1z"/>
	<path fill="#AD1F23" d="M1825.2,119.9c0-5.3,0.5-10.5,1.6-15.8c1.1-5.2,2.7-10.2,4.9-14.9s5-9,8.3-12.9c3.3-3.9,7.1-7.3,11.5-10.2
		c9.3-6.1,20.2-9.2,32.5-9.2c18.7,0,33.4,6.4,44.2,19.3c9.9,11.8,14.8,26.3,14.8,43.6c0,17.4-4.9,32.2-14.8,44.5
		c-10.8,13.3-25.5,19.9-44.2,19.9c-18.6,0-33.3-6.7-44.2-20.2C1830.1,152,1825.2,137.2,1825.2,119.9z M1871.7,170.9
		c3.6,1.5,7.7,2.2,12.5,2.2s8.9-0.7,12.5-2.2c3.6-1.5,6.7-3.5,9.3-6.1c2.6-2.6,4.8-5.6,6.5-9c1.7-3.4,3.1-7.1,4.2-11
		c1.9-7.1,2.8-14,2.8-20.9c0-6.9-0.2-12.4-0.6-16.7c-0.4-4.2-1.2-8.3-2.2-12.1c-1.1-3.8-2.4-7.4-4.2-10.7c-1.7-3.3-3.9-6.2-6.5-8.6
		c-5.6-5.2-12.8-7.7-21.7-7.7c-16.6,0-27.4,9.2-32.2,27.7c-1.9,7-2.8,15.1-2.8,24.3C1849.2,147.7,1856.7,164.7,1871.7,170.9z"/>
	<path fill="#AD1F23" d="M2011.4,80.3c6.4-12.3,17.8-22.4,34.3-30.5c12.1,6.2,21.5,13.1,28,20.5c10.3,12,16.6,29.8,18.7,53.5
		c0.7,8.1,1.1,16,1.1,23.6c0,7.6,0.1,12.8,0.4,15.5c0.3,2.7,0.9,4.8,1.8,6.2c0.9,1.4,2.2,2.3,4,2.7c1.8,0.4,3.5,0.8,5.3,1.1
		c1.8,0.3,3,0.4,3.7,0.5c0.7,0,1.5,0.1,2.3,0.3v8.4h-57.6v-8.4c4-0.5,7.2-0.9,9.6-1.4c2.4-0.4,4.2-1.3,5.5-2.5c2-2,3.1-7.4,3.1-16.4
		v-11.8c0-15.5-0.4-26.3-1.2-32.3c-0.8-6-1.7-11-2.9-14.9c-1.2-3.9-2.7-7.6-4.7-11c-3.9-6.5-9.9-12.9-18.1-19.2
		c-22.2,13.2-33.3,31.1-33.3,53.7v34.5c0,9,0.7,14.3,2.1,16.1c1.4,1.8,3.1,2.9,5.1,3.4c2,0.5,4.8,1,8.3,1.5l2.7,0.3v8.4H1972v-8.3
		c0.4-0.2,1-0.3,1.6-0.4c0.7,0,1.9-0.2,3.7-0.4c1.8-0.2,3.6-0.6,5.6-1.1c1.9-0.5,3.4-1.3,4.5-2.4c1.8-1.8,2.6-6.4,2.6-13.8V83
		c0-6.2-0.8-10-2.4-11.3c-1.6-1.4-3.6-2.3-6-2.7c-2.4-0.4-5.6-0.8-9.6-1.1v-8.7h39.4V80.3z"/>
	<path fill="#AD1F23" d="M2218.4,163.4c-7.9,11.9-18.9,21.3-33.1,28c-12.1-6.2-21.5-13.1-28-20.5c-10.3-12-16.6-29.8-18.7-53.5
		c-0.7-8.1-1.1-15.9-1.1-23.3c0-7.4-0.2-12.5-0.5-15.3c-0.4-2.8-1-4.9-2.1-6.5c-1-1.5-2.5-2.6-4.3-3.2c-1.9-0.6-4.3-1-7.4-1.3v-8.7
		h53.1v8.7l-2.6,0.3c-3.2,0.4-5.7,0.8-7.5,1.3c-1.9,0.4-3.3,1.3-4.3,2.5c-1.5,2-2.3,7.3-2.3,15.9v11.8c0,10.4,0.2,19.4,0.7,27
		c0.5,7.6,1.6,14.3,3.4,20.2c3.4,11.3,11,21.3,22.6,30.2c21.5-12.8,32.3-30.8,32.3-53.8V88.8c0-9.2-0.6-14.5-1.9-16.2
		c-1.3-1.6-2.9-2.7-4.7-3.2c-1.9-0.5-4.4-0.9-7.5-1.3l-2.5-0.3v-8.7h53v8.6l-0.2,0.1c-6.2,0.5-10,1.8-11.4,3.8
		c-2.2,3.1-3.3,9.1-3.3,18v45.5c0,30.3-4.5,53.7-13.4,70.2c-10.8,20.1-30,32.2-57.5,36.4l-2.2-10.7c16.8-4,29.3-11.4,37.3-22.2
		C2211.9,198.4,2216.7,183.2,2218.4,163.4z"/>
</g>
<g>
</g>
<g>
</g>
<g>
</g>
<g>
</g>
<g>
</g>
<g>
</g>
</svg>
