<?xml version="1.0" encoding="utf-8"?>
<!-- Generator: Adobe Illustrator 18.1.1, SVG Export Plug-In . SVG Version: 6.00 Build 0)  -->
<svg version="1.1" id="Layer_1" xmlns="http://www.w3.org/2000/svg" xmlns:xlink="http://www.w3.org/1999/xlink" x="0px" y="0px"
	 viewBox="2244.6 5.6 259.7 251.5" enable-background="new 2244.6 5.6 259.7 251.5" xml:space="preserve">
<g>
	<path fill="#832C30" d="M2359.6,156.8c-11.3,6.8-31.9,13.2-46.6-8.4c-4.8-7,6.6-41.7,40.1-48.2c-23.6-10.7-47.5-0.4-62.7-1.7
		c-4-0.3,2.7-8.1,12.5-10.7c-10.6-4.1-15.2,0.3-21.1,2.6c-5.4-10.2-9.2-1.4-8.4-25.6c-6,6-10.1,13.5-12.5,21.9
		c-1.4,4.7-2.2,36.8-15,6.3c-2.9,49,51.8,119,105.5,77.5c2.2-1.7,8-2.9,8-2.9S2362.1,155.2,2359.6,156.8z"/>
	<path fill="#832C30" d="M2477.1,87.2c0,0,6.7-6.6,9.1-8.7c3.5-3,10.5,0.3,12.3,4.3c1.7,3.7-1.5,4.3-1.6,5.8
		c-0.2,3.1,3.8,8.9,4.2,12c0.3,2-1.5,8-1.5,8s-12.6-1.2-12.4-4.5c0.1-2.8,3.5-9.1,1.8-10s-1.3,12.5-6.8,12.9
		C2477.1,107.2,2477.1,87.2,2477.1,87.2z"/>
	<path fill="#832C30" d="M2444.9,28.6c0,0,5.8-12.7,2.7-15c-14.1-10.8-23.8,9.7-23.8,9.7s-2,4.8-27-9.1c15.4,17.9,12.3,12,12.5,16.5
		c-4.5,3-11.1,7.6-17.2,10.1c0.8,3,10.8-0.8,14.5-1.3c-1.4,3-6.7,4.1-8.3,6.2c-2.6,3.7,1.9,7.1-1.9,18c3.9,4.1,7.5-4.5,10.1-5.8
		c-3.4,16.7,6.6,26-8.9,29.1c-2.4,0.4,2.9,4.5,9.5,1.7c-9.2,12.2-11.1,34.6-11.1,34.6l39.7-17.3L2444.9,28.6z"/>
	<path fill="#832C30" d="M2411.1,173.4c6.5,10.9-12,48-12,49.4c-0.3,22.6,20.4,23.2,19.4,29.2c-0.5,2.5-10.6,2.8-18.5,1.6
		c0.1-10.2-21.4-32.1-22.1-43.8C2377,198.7,2398,170,2398,170S2409.3,170.5,2411.1,173.4z"/>
	<path fill="#AD1F23" d="M2379.6,255.9c6.1,1.3,12.9,1.5,16.1,0.7c2.1-0.5,1.2-3.8,0.5-4.3c-4-3.9-11.4-8-15.3-21.5
		c0.3-7.1,0.5-11.6,3.1-13.8c2.5-2.1,31.4-20,20.1-39.4c44.9-1.7,56.5-39.3,64-48.4c3.7-4.4,14.6-9.1,20.6-9.5
		c-6,6.6-5.1,13.1-6.5,13.7c-6.4,2.9-7,7.6-6.2,12.2c0.9,0.9,5.6,9.2,8.2,8.4c1.8-3.5,2-16.1,6.3-17.9c5.3-2.2,4.6-10.8,6.9-15
		c2.3-4.2,10.5-17.2-9.6-18.9c-0.7,0-5.8,1.3-5.8,0.5c0.5-12.6-17.8-41.4-17-43.6c2-5.1,15.8-2.8,20.9-6.7c2.1-1.7,4.2-7.6,3.2-10.2
		c-2.2-6-15.4-10.9-21.5-13.5c-1-0.4-4.4-14.6-17.9-15.5c-0.6-1.2,2.1-4.3,1.2-5.2c-3.2,1.5-12.2,7-13.5,12.7
		c-6.6,5.2-16.1,15.4-18.9,25.4c-6.7,24.7,7.5,38.7-17.2,65.9c-10.8,11.9-36,11.7-42.6,48.1c-4.6,25.3,17.5,36.9,12.9,44.3
		C2363.9,237.1,2380.1,246.1,2379.6,255.9z"/>
</g>
<g>
	<path fill="#F1F2F2" d="M2376.3,150.9c-0.4-0.5-0.7-0.9-1-1.2c-0.2-0.2-0.4-0.3-0.6-0.4c-0.1,0-0.3,0-0.5,0
		c-0.3,0.1-0.7,0.4-1.4,1.2l-0.9,1.2l8,6.9c0.2,0.2,0.4,0.4,0.6,0.4c0.1,0.1,0.3,0.1,0.5,0s0.4-0.2,0.6-0.4s0.5-0.5,0.9-0.9l0.6,0.5
		l-4.4,5l-0.6-0.5c0.6-0.8,0.9-1.5,0.9-1.7s0-0.4-0.1-0.6c-0.1-0.1-0.3-0.3-0.5-0.6l-8-6.9l-1.2,1.4c-0.7,0.8-0.8,1.8-0.3,2.8
		c0.1,0.3,0.3,0.6,0.5,1l0.1,0.2l-0.5,0.6l-2.3-3.4l7.8-8.9l2.3,3.2L2376.3,150.9z"/>
	<path fill="#F1F2F2" d="M2381.7,145.9c-0.4-1.2-0.4-2.5-0.1-4.1c1.2-0.4,2.1-0.6,2.9-0.6c1.4,0,2.9,0.6,4.7,1.9
		c0.6,0.4,1.2,0.8,1.7,1.3c0.5,0.4,0.8,0.7,1,0.8s0.3,0.2,0.5,0.2c0.1,0,0.2,0,0.4-0.1c0.1-0.1,0.2-0.1,0.3-0.2
		c0.1-0.1,0.2-0.1,0.2-0.2l0.1-0.1l0.5,0.5l-3.2,3.8l-0.5-0.5c0.2-0.3,0.3-0.5,0.4-0.7s0.1-0.3,0.1-0.5c0-0.2-0.3-0.6-0.9-1.2
		l-0.8-0.6c-1-0.8-1.8-1.5-2.2-1.8c-0.4-0.3-0.8-0.5-1.2-0.6c-0.3-0.1-0.6-0.2-0.9-0.3c-0.6-0.1-1.4-0.1-2.3,0c-0.1,1-0.2,1.9,0,2.6
		c0.2,1,0.8,1.9,1.8,2.7l2.3,2c0.3,0.2,0.5,0.4,0.7,0.6c0.2,0.1,0.3,0.2,0.5,0.2s0.3,0,0.5-0.2c0.1-0.1,0.4-0.3,0.6-0.5l0.5,0.5
		l-3.2,3.8l-0.5-0.4l0,0c0.2-0.3,0.3-0.5,0.4-0.7c0.1-0.2,0.1-0.3,0.1-0.5s-0.3-0.5-0.7-0.9l-8.4-7.3c-0.5-0.4-0.8-0.6-1-0.6
		s-0.3,0.1-0.5,0.2c-0.1,0.1-0.3,0.3-0.6,0.5l-0.5-0.5l3.2-3.8l0.5,0.5c-0.2,0.2-0.3,0.5-0.4,0.6c-0.1,0.1-0.1,0.3-0.1,0.4
		c0,0.2,0.2,0.5,0.7,1L2381.7,145.9z"/>
	<path fill="#F1F2F2" d="M2399.9,136.7c0.2,1.3-0.2,2.6-1.3,3.9c-1,1.2-2.3,1.8-3.7,1.8c-1.4,0-2.6-0.5-3.9-1.6
		c-1.3-1-2-2.4-2.2-3.9c-0.2-1.5,0.2-2.7,1.2-3.9c0.7-0.8,1.5-1.4,2.3-1.6c0.7-0.1,1.4,0,2,0.5c0.7,0.6,1,1.6,0.9,2.8
		c-0.1,1.4-0.9,3-2.5,4.8c2,1.5,3.7,1.5,5-0.1c0.8-0.9,1.3-1.9,1.3-2.8H2399.9z M2392.2,139c1.4-1.7,2-3.1,1.7-4.4
		c-0.1-0.4-0.3-0.8-0.7-1.2c-0.5-0.4-1-0.5-1.7-0.2c-0.2,0.1-0.4,0.3-0.6,0.5s-0.3,0.5-0.4,0.8c-0.1,0.3-0.1,0.5-0.1,0.8
		s0.1,0.6,0.2,0.9s0.2,0.6,0.4,0.9C2391.1,138,2391.7,138.6,2392.2,139z"/>
	<path fill="#F1F2F2" d="M2379.8,182.9c0.3-0.2,0.6-0.6,1-1c0.4-0.4,0.7-1,0.8-1.6s0.1-1.2,0-1.7c-0.2-1-1-2.2-2.3-3.4
		c-1.3-1-2.3-1.7-3.1-1.9c-1.2-0.2-2.4,0.2-3.5,1.5c-1.4,1.6-1.7,2.7-1,3.6c0.2,0.2,0.4,0.5,0.7,0.7l10.1,8.7
		c0.4,0.3,0.7,0.5,0.9,0.7c0.2,0.1,0.5,0.2,0.7,0.1c0.2,0,0.4-0.1,0.7-0.3c0.3-0.2,0.6-0.5,1-0.9l0.5-0.5l0.8,0.7l-5.4,6.4l-0.8-0.7
		c0,0,0-0.1,0.1-0.1c0,0,0.1-0.2,0.2-0.4c0.1-0.2,0.2-0.4,0.3-0.6c0.1-0.2,0.1-0.4,0.1-0.6c0-0.3-0.4-0.8-1.2-1.5l-10.3-8.9
		c-0.6-0.5-1.2-0.8-1.4-0.8c-0.3,0-0.5,0.1-0.8,0.3c-0.2,0.1-0.5,0.4-0.9,0.8l-0.8-0.7l2.3-2.6c0.5-0.6,1-1.4,1.6-2.1s1-1.5,1.9-2.4
		c0.7-0.8,1.6-1.5,2.4-1.9c0.8-0.4,1.7-0.6,2.5-0.6c1.5,0,2.9,0.6,4.4,2c1.5,1.4,2.4,2.8,2.6,4.4c0.3,1.9-0.3,3.7-1.9,5.6
		c-0.3,0.4-0.8,0.8-1.5,1.3L2379.8,182.9z"/>
	<path fill="#F1F2F2" d="M2391.7,165.1c0-0.6-0.4-1.4-1.2-2c-0.3-0.3-0.7-0.4-1.3-0.2c-0.4,0.1-0.8,0.5-1.4,1c-1,1.3-1.3,2.3-0.4,3
		l7.8,6.7c0.3,0.2,0.5,0.4,0.7,0.5s0.5,0.1,0.7,0c0.5-0.1,1.4-0.8,2.5-2.1l0.8,0.7l-5.9,6.8l-0.8-0.7l0,0c0.6-0.8,0.9-1.5,0.8-1.7
		c-0.1-0.2-0.1-0.5-0.2-0.7c-0.1-0.2-0.4-0.4-0.7-0.7l-7-6.1c-0.7-0.6-1.3-0.9-1.6-0.9c-0.3,0-0.5,0-0.8,0.2
		c-0.2,0.1-0.5,0.3-0.8,0.6l-0.8-0.7l1.8-2.1c0.7-0.8,1.2-1.5,1.5-1.8c0.2-0.3,0.4-0.6,0.6-0.8c0.4-0.6,0.8-1.2,1.2-1.6
		c0.3-0.3,0.7-0.7,1-1c0.4-0.3,0.8-0.6,1.3-0.8c0.9-0.4,1.7-0.3,2.4,0.2c0.5,0.4,0.8,1.2,0.9,2c0.1,0.8,0,1.5-0.3,2.2H2391.7z"/>
	<path fill="#F1F2F2" d="M2397,155.3c0.1,0.3,0.3,0.5,0.5,0.7s0.7,0.4,1.4,0.4l-0.1,1c-0.8,0.6-1.7,0.9-2.5,0.8
		c-0.3,0-0.5-0.1-0.8-0.4c-0.3-0.2-0.4-0.6-0.6-1.2c-0.1-0.5-0.1-1,0-1.7c0.3-1.4,1-2.8,2.3-4.2c2-2.3,4-3.1,5.8-2.6
		c0.5,0.2,1,0.5,1.6,0.9l6.4,5.6c0.7,0.6,1.3,1,1.6,0.9c0.3-0.1,0.5-0.1,0.7-0.2c0.2-0.1,0.5-0.4,0.8-0.7l0.8,0.7l-2.2,2.5
		c-0.4,0.5-0.8,1-1.4,1.8c-1,1.4-1.8,2.5-2.4,3.2c-0.6,0.7-1.3,1.3-1.9,1.6c-0.6,0.3-1.3,0.6-1.9,0.6c-1.2,0.1-2.2-0.1-3.1-0.9
		c-0.9-0.8-1.5-2.3-1.3-4.2c0.1-2.3,1.4-4.8,3.6-7.4l-1.8-1.6c-1.4-1.2-2.9-0.8-4.6,0.9C2397,153.3,2396.7,154.4,2397,155.3z
		 M2405.3,153.7c-2.9,3.9-3.5,6.6-1.4,8.4c1,0.9,2.2,0.9,3.5,0.1c0.4-0.2,0.8-0.6,1.3-1.2c0.4-0.5,0.7-0.9,1-1.4
		c0.2-0.3,0.3-0.7,0.4-1c0-0.3,0-0.6-0.2-0.9c-0.2-0.3-0.5-0.6-0.9-0.9L2405.3,153.7z M2405.3,153.7L2405.3,153.7L2405.3,153.7
		L2405.3,153.7z"/>
	<path fill="#F1F2F2" d="M2409.9,140.9c-0.6-1.7-0.7-3.7-0.2-6c1.7-0.6,3.1-0.9,4.4-0.9c2.1,0,4.4,0.9,6.9,2.8
		c0.8,0.6,1.7,1.3,2.4,1.9c0.7,0.6,1.3,1,1.6,1.3s0.5,0.3,0.7,0.3s0.4,0,0.6-0.1s0.3-0.2,0.5-0.4c0.1-0.1,0.3-0.2,0.3-0.3
		c0,0,0.1-0.1,0.2-0.2l0.8,0.7l-4.8,5.6l-0.8-0.7c0.3-0.4,0.5-0.7,0.6-1c0.1-0.3,0.2-0.5,0.2-0.7c0-0.3-0.4-0.9-1.4-1.7l-1.2-1
		c-1.6-1.4-2.6-2.2-3.4-2.7c-0.6-0.4-1.3-0.7-1.7-0.9s-0.9-0.4-1.5-0.5c-0.9-0.2-2.1-0.1-3.5,0.1c-0.5,3.2,0.3,6,2.6,7.9l3.5,2.9
		c0.8,0.7,1.5,1.2,1.8,1.2c0.3,0,0.5,0,0.7-0.2c0.2-0.1,0.5-0.3,0.8-0.6l0.2-0.2l0.8,0.7l-4.8,5.6l-0.8-0.7c0,0,0-0.1,0.1-0.2
		c0,0,0.1-0.2,0.2-0.4s0.2-0.4,0.3-0.6c0.1-0.2,0.1-0.4,0.1-0.6c0-0.3-0.4-0.8-1.2-1.5l-7.2-6.3c-0.6-0.5-1-0.7-1.4-0.7
		c-0.2,0-0.5,0.1-0.7,0.3c-0.2,0.2-0.5,0.4-0.8,0.8l-0.8-0.7l3.2-3.8L2409.9,140.9z"/>
	<path fill="#F1F2F2" d="M2433.8,131.6c1.2-1.4,1.8-2.9,1.9-4.8l1-0.1c0.2,1.6,0,3.2-0.9,4.9c-0.3,0.5-0.6,1-1,1.5
		c-1.5,1.8-3.4,2.6-5.6,2.5c-2-0.1-4-0.8-5.8-2.4c-1.8-1.6-2.9-3.4-3.2-5.4c-0.3-2.1,0.2-4.1,1.7-5.9c0.7-0.8,1.7-1.6,2.7-2.1
		c0.1,0,0.2-0.1,0.3-0.2c0.2-0.5,0.2-1-0.1-1.5l0.6-0.7l4.4,3.8l-0.7,0.8c-2.3-1.4-4.4-1.2-6,0.7c-1,1.2-1.3,2.6-0.6,4.2
		c0.5,1.4,1.5,2.7,3,4c2.6,2.3,5,2.9,6.9,1.8C2433,132.5,2433.4,132.1,2433.8,131.6z"/>
	<path fill="#F1F2F2" d="M2424.6,111.4l-0.2-3.5l3.4-0.2l0.2,3.4L2424.6,111.4z M2439.3,125.6l0.2-0.4c0.2-0.3,0.3-0.6,0.4-0.8
		c0.1-0.2,0.1-0.4,0.1-0.6c0-0.3-0.4-0.8-1.2-1.5l-6.9-6c-0.7-0.6-1.3-0.9-1.6-0.9c-0.3,0-0.5,0.1-0.8,0.3c-0.2,0.2-0.5,0.4-0.9,0.8
		l-0.8-0.7l4.8-5.6l0.8,0.7c-0.3,0.4-0.5,0.7-0.6,1c-0.1,0.2-0.2,0.5-0.2,0.7c0,0.3,0.4,0.8,1.2,1.6l6.9,6c0.7,0.6,1.3,0.9,1.5,0.9
		s0.4,0,0.6-0.2c0.2-0.1,0.4-0.3,0.7-0.5l0.4-0.3l0.8,0.7l-4.8,5.7L2439.3,125.6z"/>
	<path fill="#F1F2F2" d="M2439.9,106.2c-0.6-1.7-0.7-3.7-0.2-6c1.7-0.6,3.1-0.9,4.4-0.9c2.1,0,4.4,0.9,6.9,2.8
		c0.8,0.6,1.7,1.3,2.4,1.9c0.7,0.6,1.3,1,1.6,1.3c0.3,0.2,0.5,0.3,0.7,0.3s0.4,0,0.6-0.1s0.3-0.2,0.5-0.4c0.1-0.1,0.3-0.2,0.3-0.3
		c0-0.1,0.1-0.1,0.2-0.2l0.8,0.7l-4.8,5.6l-0.8-0.7c0.3-0.4,0.5-0.7,0.6-1c0.1-0.2,0.2-0.5,0.2-0.7c0-0.3-0.4-0.9-1.4-1.7l-1.2-1
		c-1.6-1.4-2.6-2.2-3.4-2.7c-0.6-0.4-1.3-0.7-1.7-0.9s-0.9-0.4-1.5-0.5c-0.9-0.2-2.1-0.1-3.5,0.1c-0.5,3.2,0.3,6,2.6,7.9l3.5,2.9
		c0.8,0.7,1.5,1.2,1.8,1.2c0.3,0,0.5,0,0.7-0.2c0.2-0.1,0.5-0.3,0.8-0.6l0.2-0.2l0.8,0.7l-4.8,5.6l-0.8-0.7c0,0,0-0.1,0.1-0.2
		c0,0,0.1-0.2,0.2-0.4s0.2-0.4,0.3-0.6c0.1-0.2,0.1-0.4,0.1-0.6c0-0.3-0.4-0.8-1.2-1.5l-7.2-6.3c-0.6-0.5-1-0.7-1.4-0.7
		c-0.2,0-0.5,0.1-0.7,0.3c-0.2,0.2-0.5,0.4-0.8,0.8l-0.8-0.6l3.2-3.8L2439.9,106.2z"/>
	<path fill="#F1F2F2" d="M2466.1,94.1c0.1,1.7-0.2,3.1-1.4,4.4c-1.5,1.7-3.2,2.5-5.3,2.3c-1.9-0.1-3.7-0.9-5.4-2.4
		c-1.8-1.6-2.8-3.4-3.2-5.3c-0.4-2.2,0.1-4.3,1.8-6.2c0.4-0.5,0.9-1,1.5-1.7c1-1,1.7-1.7,2-2l2.3-2.6l0.8,0.7
		c-0.6,0.8-0.9,1.4-0.8,1.7c0,0.3,0.1,0.5,0.3,0.7c0.2,0.2,0.4,0.4,0.7,0.7l9.2,8c1.8,1.5,2.8,3.4,3.2,5.3c0.4,2.2-0.1,4.2-1.7,6
		c-0.7,0.8-1.7,1.6-2.8,2l-0.7-1.4c0.7-0.3,1.4-0.9,2-1.7c0.6-0.7,0.9-1.5,1.2-2.2c0.2-0.7,0.1-1.5-0.1-2.2
		c-0.4-1.3-1.4-2.5-2.8-3.9L2466.1,94.1z M2455.9,96.2c3.4,2.9,6,3.4,7.8,1.4c0.7-0.8,1-1.9,1-2.9c0-1-0.4-2-1.3-2.6l-5.6-4.8
		c-0.6-0.5-1.3-0.8-1.7-0.8c-0.8,0-1.7,0.6-2.7,1.7C2451.5,90.4,2452.2,93.1,2455.9,96.2z"/>
	<path fill="#F1F2F2" d="M2437.6,145.8c0.2-0.1,0.4-0.4,0.7-0.7c0.2-0.3,0.4-0.6,0.5-1c0.1-0.4,0.1-0.7,0-1.2
		c-0.2-0.7-0.7-1.5-1.6-2.3c-0.8-0.7-1.6-1.2-2.2-1.3c-0.8-0.2-1.6,0.1-2.4,1c-0.9,1-1.2,1.9-0.7,2.4c0.1,0.1,0.3,0.3,0.4,0.5l6.8,6
		c0.2,0.2,0.4,0.4,0.6,0.5c0.1,0.1,0.3,0.1,0.5,0.1s0.3-0.1,0.5-0.2c0.2-0.1,0.4-0.3,0.7-0.6l0.3-0.3l0.5,0.4l-3.8,4.3l-0.5-0.4
		c0,0,0,0,0-0.1s0.1-0.1,0.2-0.2c0.1-0.1,0.1-0.2,0.2-0.4c0-0.1,0.1-0.3,0.1-0.4c0-0.2-0.3-0.5-0.8-1l-7-6.1
		c-0.4-0.3-0.7-0.5-0.9-0.5c-0.2,0-0.3,0.1-0.5,0.2c-0.1,0.1-0.4,0.3-0.6,0.5l-0.6-0.5l1.6-1.8c0.3-0.4,0.7-0.9,1-1.4s0.7-1,1.3-1.6
		c0.5-0.5,1-1,1.6-1.3c0.5-0.3,1.2-0.4,1.7-0.4c0.9,0,2,0.4,3,1.4s1.6,1.9,1.8,3c0.2,1.3-0.2,2.5-1.3,3.8c-0.2,0.2-0.5,0.5-0.9,0.8
		L2437.6,145.8z"/>
	<path fill="#F1F2F2" d="M2443,140.1c-0.3-0.3-0.6-0.6-0.9-1c-0.3-0.3-0.5-0.7-0.7-1.2s-0.3-0.8-0.4-1.3c-0.1-0.4-0.1-0.8,0-1.4
		c0.1-0.9,0.5-1.9,1.3-2.6c1-1.3,2.3-1.8,3.9-1.8c1.4,0,2.6,0.5,3.8,1.6c1.2,1,1.9,2.2,2.2,3.6c0.3,1.5-0.1,2.8-1.2,4.1
		c-1,1.3-2.3,1.8-3.9,1.7C2445.4,141.7,2444.2,141.1,2443,140.1z M2449.1,140c0.3-0.1,0.5-0.3,0.8-0.6c0.2-0.3,0.4-0.6,0.5-0.9
		s0.1-0.6,0.1-0.9c0-0.3-0.1-0.6-0.2-0.9s-0.3-0.6-0.5-0.9c-0.3-0.5-0.7-0.9-1.3-1.4c-0.4-0.4-0.8-0.7-1.2-0.9
		c-0.3-0.2-0.6-0.4-0.9-0.5c-0.3-0.1-0.6-0.2-0.9-0.3s-0.6-0.1-0.9-0.1c-0.6,0-1.3,0.3-1.8,0.9c-0.9,1-0.9,2.3,0,3.8
		c0.3,0.5,0.8,1,1.5,1.6C2446.3,140.1,2447.8,140.6,2449.1,140z"/>
	<path fill="#F1F2F2" d="M2450.9,125.6c-0.4-1.2-0.5-2.5-0.1-4.1c1-0.4,2.1-0.6,2.9-0.6c1.4,0,2.9,0.6,4.7,1.9
		c0.5,0.4,1.2,0.8,1.7,1.3c0.5,0.4,0.8,0.7,1,0.8c0.2,0.1,0.3,0.2,0.5,0.2s0.2,0,0.4-0.1c0.2-0.1,0.2-0.2,0.3-0.2
		c0.1-0.1,0.2-0.1,0.2-0.2l0.1-0.1l0.5,0.5l-3.2,3.8l-0.5-0.5c0.2-0.3,0.3-0.5,0.4-0.7c0.1-0.2,0.1-0.3,0.1-0.5
		c0-0.2-0.3-0.6-0.9-1.2l-0.7-0.6c-1-0.9-1.8-1.5-2.2-1.8c-0.4-0.3-0.8-0.5-1.2-0.6c-0.3-0.1-0.6-0.2-1-0.3c-0.6-0.1-1.5-0.1-2.3,0
		c-0.3,2.2,0.2,4,1.8,5.3l2.3,2c0.6,0.5,0.9,0.7,1.2,0.8c0.2,0,0.3,0,0.5-0.1c0.2-0.1,0.3-0.2,0.5-0.4l0.1-0.1l0.5,0.5l-3.2,3.8
		l-0.5-0.4v-0.1c0,0,0.1-0.1,0.1-0.2c0.1-0.1,0.1-0.2,0.2-0.4c0.1-0.2,0.1-0.3,0.1-0.4c0-0.2-0.3-0.5-0.7-0.9l-4.9-4.3
		c-0.4-0.3-0.7-0.5-0.8-0.5c-0.1,0-0.3,0.1-0.5,0.2c-0.1,0.1-0.3,0.3-0.6,0.5l-0.5-0.5l2.2-2.6L2450.9,125.6z"/>
	<path fill="#F1F2F2" d="M2468.3,116.9c0.3,1.3,0.3,2.5,0,3.8c-1,0.4-2.1,0.6-2.9,0.6c-1.4,0-2.9-0.6-4.7-1.9
		c-0.5-0.4-1.2-0.8-1.7-1.3c-0.5-0.4-0.8-0.7-1-0.8c-0.2-0.1-0.4-0.2-0.5-0.2s-0.3,0-0.4,0.1c-0.1,0.1-0.3,0.2-0.5,0.4l-0.5-0.5
		l3-3.5l0.5,0.5l-0.1,0.2c-0.1,0.2-0.2,0.4-0.3,0.5c0,0.1-0.1,0.3,0,0.4c0,0.2,0.3,0.5,0.9,1l0.7,0.6c0.7,0.6,1.4,1.2,1.9,1.6
		c0.5,0.4,1,0.7,1.6,0.9c0.9,0.4,2.1,0.5,3.4,0.3c0.3-2.2-0.2-4-1.8-5.3l-2.3-2c-0.6-0.5-1-0.8-1.2-0.8c-0.2,0-0.3,0-0.4,0.1
		c-0.1,0.1-0.3,0.2-0.5,0.4l-0.1,0.1l-0.5-0.5l3-3.5l0.5,0.5l0,0c-0.3,0.4-0.4,0.7-0.4,0.9c0.1,0.3,0.4,0.7,1,1.3l3,2.6
		c2.1,1.8,3.4,3.5,4,5c0.7,1.9,0.4,3.9-0.7,6l-0.8-0.4c0.6-1.4,0.8-2.6,0.6-3.8C2470.3,119.3,2469.5,118.1,2468.3,116.9z"/>
</g>
<g>
	<path fill="#832C30" d="M2418.2,213.8c0.4,0,0.7-0.1,0.8-0.2c0.1-0.1,0.1-0.2,0.1-0.3s0-0.2,0-0.4v-7.4c0-0.4,0-0.6-0.2-0.7
		c-0.1,0-0.3-0.1-0.8-0.1V204h3.4v0.5c-0.4,0-0.7,0.1-0.8,0.1c-0.1,0.1-0.2,0.3-0.2,0.7v2.2c0.3-0.4,0.8-0.6,1.5-0.7
		c0.2,0,0.4,0,0.6,0s0.5,0,0.8,0.1c0.3,0.1,0.5,0.2,0.7,0.4s0.4,0.3,0.6,0.6c0.2,0.2,0.3,0.5,0.4,0.7c0.2,0.5,0.3,1.2,0.3,1.9
		c0,1-0.3,2-0.8,2.7c-0.4,0.5-0.8,0.8-1.5,1c-0.3,0.1-0.6,0.1-0.8,0.1c-0.3,0-0.7,0-1.2,0c-0.7-0.1-1.3-0.1-1.4-0.1h-1.6
		L2418.2,213.8L2418.2,213.8z M2420.5,212.4c0,0.3,0.1,0.6,0.3,0.8c0.2,0.2,0.7,0.3,1.5,0.3c0.6,0,1.2-0.3,1.6-0.9
		c0.3-0.5,0.4-1.4,0.4-2.3c0-1.4-0.3-2.3-0.9-2.8c-0.2-0.2-0.4-0.2-0.7-0.2c-0.3,0-0.5,0-0.8,0.1c-0.3,0.1-0.4,0.2-0.6,0.3
		c-0.4,0.3-0.6,0.7-0.6,1.2L2420.5,212.4L2420.5,212.4z"/>
	<path fill="#832C30" d="M2431.7,213.1c-0.4,0.7-1,1.3-1.9,1.7c-0.7-0.3-1.3-0.7-1.6-1.3c-0.5-0.7-0.9-1.8-1-3.2c0-0.4,0-0.9,0-1.4
		c0-0.4,0-0.7,0-0.9s0-0.3-0.1-0.3c0,0-0.1-0.1-0.2-0.2c-0.1,0-0.2,0-0.4,0V207h3v0.5h-0.1c-0.2,0-0.3,0-0.4,0s-0.2,0-0.2,0.1
		c-0.1,0.1-0.1,0.4-0.1,0.9v0.7c0,0.6,0,1.2,0,1.6c0,0.4,0.1,0.8,0.2,1.2c0.2,0.6,0.6,1.3,1.3,1.8c1.3-0.7,1.9-1.8,1.9-3.2v-2.1
		c0-0.5,0-0.8-0.1-0.9c0-0.1-0.1-0.1-0.2-0.2c-0.1,0-0.2,0-0.4-0.1h-0.1v-0.4h3v0.5l0,0c-0.3,0-0.5,0.1-0.6,0.2
		c-0.1,0.2-0.2,0.5-0.2,1v2.7c0,1.8-0.2,3.2-0.7,4.2c-0.6,1.2-1.7,1.9-3.4,2.2l-0.1-0.6c0.9-0.2,1.7-0.6,2.1-1.4
		C2431.3,215.2,2431.6,214.3,2431.7,213.1z"/>
	<path fill="#832C30" d="M2438.8,213.8c0.4,0,0.7-0.1,0.8-0.2c0.1-0.1,0.1-0.2,0.1-0.3s0-0.2,0-0.4v-6.3c0-0.4,0-0.6-0.1-0.7
		c-0.1-0.1-0.2-0.1-0.3-0.2s-0.3,0-0.5-0.1V205h1.6c0.2,0,0.5,0,0.8,0c0.6,0,1.2-0.1,1.6-0.1s0.9,0,1.4,0.1c0.4,0.1,0.7,0.2,1,0.4
		c0.5,0.3,0.8,0.8,0.8,1.5c0,0.8-0.3,1.5-0.9,2c-0.2,0.1-0.4,0.3-0.7,0.3c1.2,0.2,2,0.6,2.3,1.5c0.1,0.2,0.1,0.5,0.1,0.8
		s0,0.6-0.2,1c-0.2,0.4-0.3,0.6-0.7,0.9c-0.7,0.6-1.7,0.8-2.9,0.8c-0.3,0-0.6,0-1,0c-0.7-0.1-1.3-0.1-1.6-0.1h-1.6v-0.4H2438.8z
		 M2441.1,212.4c0,0.4,0.1,0.6,0.3,0.8c0.2,0.2,0.8,0.3,1.7,0.3c0.9,0,1.6-0.2,2-0.6c0.3-0.3,0.5-0.8,0.5-1.4c0-0.8-0.3-1.5-0.9-1.8
		c-0.2-0.1-0.4-0.2-0.7-0.2c-0.2,0-0.4,0-0.5,0h-0.4c-0.1,0-0.2,0-0.4,0c-0.2,0-0.2,0-0.3,0v-0.5l1.3-0.1c0.5,0,0.9-0.2,1.2-0.6
		c0.2-0.3,0.3-0.7,0.3-1.3c0-0.4-0.1-0.8-0.4-1c-0.3-0.3-0.8-0.4-1.7-0.4c-0.9,0-1.5,0.2-1.6,0.7c0,0.1,0,0.3,0,0.4L2441.1,212.4
		L2441.1,212.4z"/>
	<path fill="#832C30" d="M2450.4,208c0,0.1-0.1,0.2-0.1,0.4c0,0.2,0,0.3,0.2,0.5l-0.4,0.2c-0.4-0.1-0.8-0.2-1-0.6
		c0-0.1-0.1-0.2-0.1-0.4s0-0.3,0.2-0.5c0.2-0.2,0.3-0.3,0.5-0.5c0.5-0.3,1.3-0.4,2.1-0.4c1.4,0,2.2,0.4,2.6,1.2
		c0.1,0.2,0.1,0.5,0.1,0.8v3.8c0,0.4,0,0.7,0.1,0.8c0.1,0,0.2,0.1,0.3,0.2c0.1,0,0.3,0,0.5,0v0.5h-1.5c-0.3,0-0.6,0-1,0
		c-0.7,0-1.4,0.1-1.8,0.1s-0.7,0-1.2-0.1c-0.3-0.1-0.5-0.2-0.7-0.4c-0.4-0.3-0.6-0.8-0.6-1.4c0-0.6,0.3-1.2,1-1.7
		c0.8-0.6,2.1-0.9,3.7-0.9v-1c0-0.8-0.5-1.3-1.7-1.3C2451,207.4,2450.6,207.6,2450.4,208z M2453.3,210.3c-2.2,0.1-3.2,0.8-3.2,2
		c0,0.6,0.3,1,0.9,1.3c0.2,0,0.4,0.1,0.7,0.1c0.3,0,0.5,0,0.7,0s0.3-0.1,0.4-0.2c0.1-0.1,0.2-0.2,0.2-0.3s0-0.3,0-0.6v-2.2H2453.3z
		 M2453.3,210.3L2453.3,210.3L2453.3,210.3L2453.3,210.3z"/>
	<path fill="#832C30" d="M2461,209.2c0.2-0.2,0.3-0.5,0.3-0.9c0-0.2-0.1-0.4-0.3-0.5c-0.1-0.1-0.4-0.1-0.7-0.1
		c-0.7,0-1.2,0.2-1.2,0.7v4.6c0,0.1,0,0.3,0,0.4c0,0.1,0.1,0.2,0.2,0.2c0.2,0.1,0.6,0.2,1.5,0.2v0.5h-4.1v-0.5l0,0
		c0.4,0,0.7-0.1,0.8-0.2c0.1-0.1,0.1-0.2,0.1-0.3s0-0.2,0-0.4v-4.2c0-0.4,0-0.7-0.1-0.8c-0.1-0.1-0.2-0.1-0.3-0.2
		c-0.1,0-0.3,0-0.5-0.1V207h1.3c0.5,0,0.8,0,1,0s0.3,0,0.5,0c0.3,0,0.6,0,0.8,0c0.2,0,0.4,0,0.7,0c0.3,0,0.4,0.1,0.6,0.2
		c0.4,0.2,0.6,0.5,0.6,0.8c0,0.3-0.1,0.6-0.4,0.9c-0.2,0.2-0.5,0.4-0.8,0.5L2461,209.2z"/>
	<path fill="#832C30" d="M2463.7,213.8h0.2c0.1,0,0.3,0,0.4,0s0.2,0,0.2-0.1c0.1-0.1,0.1-0.4,0.1-0.8v-7.3c0-0.4,0-0.7-0.1-0.8
		s-0.2-0.1-0.3-0.1c-0.1,0-0.3,0-0.5,0V204h2.3v8.9c0,0.4,0,0.6,0.2,0.8c0.1,0.1,0.3,0.1,0.7,0.2h0.3v0.5h-3.6L2463.7,213.8
		L2463.7,213.8z"/>
	<path fill="#832C30" d="M2467.9,213.8h0.2c0.1,0,0.3,0,0.4,0c0.1,0,0.2,0,0.2-0.1c0.1-0.1,0.1-0.4,0.1-0.8v-4.1
		c0-0.4,0-0.7-0.1-0.8s-0.2-0.1-0.3-0.1c-0.1,0-0.3,0-0.5,0v-0.5h3.4v0.5c-0.2,0-0.4,0-0.5,0c-0.1,0-0.2,0-0.3,0.1s-0.1,0.4-0.1,0.8
		v4.1c0,0.4,0,0.7,0.1,0.8c0,0.1,0.1,0.1,0.2,0.1s0.2,0,0.4,0.1h0.2v0.5h-3.4L2467.9,213.8L2467.9,213.8z M2468.4,204.4l1-1l1,1
		l-1,1L2468.4,204.4z"/>
	<path fill="#832C30" d="M2472.4,213.8h0.1c0.3,0,0.6-0.1,0.6-0.2c0-0.1,0.1-0.2,0.1-0.3s0-0.3,0-0.5v-4.4c0-0.3,0-0.5-0.1-0.6
		c-0.1-0.1-0.2-0.1-0.3-0.1c-0.1,0-0.3,0-0.5,0v-0.5h2.3v1.3c0.1-0.3,0.3-0.6,0.5-0.8c0.3-0.3,0.7-0.6,1.3-0.9
		c0.5,0.3,0.8,0.5,1.2,0.8c0.4,0.4,0.7,0.8,0.9,1.4c0.3-0.6,0.8-1.3,1.5-1.7c0.2-0.1,0.4-0.3,0.7-0.5c0.7,0.4,1.4,0.8,1.8,1.3
		c0.6,0.7,0.9,1.8,1,3.1c0,0.4,0,0.9,0,1.4c0,0.4,0,0.7,0,0.9c0,0.1,0,0.3,0.1,0.3c0,0,0.1,0.1,0.2,0.1s0.2,0,0.4,0.1h0.2v0.5h-3.4
		v-0.5c0.2,0,0.4,0,0.5-0.1c0.1-0.1,0.2,0,0.3-0.1c0.1-0.1,0.2-0.4,0.2-0.9v-0.9c0-1.2-0.1-2-0.3-2.6c-0.2-0.6-0.6-1.3-1.4-1.8
		c-0.5,0.4-0.8,0.8-1,1.3c-0.2,0.4-0.3,0.9-0.4,1.4c-0.1,0.7-0.1,1.4-0.1,2.1c0,0.7,0,1,0,1.2s0,0.2,0.1,0.2
		c0.1,0.1,0.3,0.1,0.7,0.2h0.1v0.5h-3.4v-0.5c0.2,0,0.4,0,0.5-0.1s0.2,0,0.3-0.1c0.1-0.1,0.1-0.4,0.1-0.9v-0.7c0-1.3,0-2.2-0.2-2.6
		c-0.2-0.4-0.3-0.8-0.4-1.2c-0.1-0.3-0.4-0.5-0.7-0.8c-0.5,0.3-0.9,0.7-1.3,1.2c-0.3,0.5-0.5,1.3-0.5,2v2.1c0,0.5,0,0.8,0.1,0.9
		s0.1,0.1,0.3,0.2s0.2,0,0.4,0.1h0.1v0.5h-3.4L2472.4,213.8L2472.4,213.8z"/>
	<path fill="#832C30" d="M2487.7,208c0,0.1-0.1,0.2-0.1,0.4c0,0.2,0,0.3,0.2,0.5l-0.4,0.2c-0.4-0.1-0.8-0.2-1-0.6
		c0-0.1-0.1-0.2-0.1-0.4s0-0.3,0.2-0.5c0.2-0.2,0.3-0.3,0.5-0.5c0.5-0.3,1.3-0.4,2.1-0.4c1.4,0,2.2,0.4,2.6,1.2
		c0.1,0.2,0.1,0.5,0.1,0.8v3.8c0,0.4,0,0.7,0.1,0.8c0.1,0,0.2,0.1,0.3,0.2c0.1,0,0.3,0,0.5,0v0.5h-1.5c-0.3,0-0.6,0-1,0
		c-0.7,0-1.4,0.1-1.8,0.1c-0.4,0-0.7,0-1.2-0.1c-0.3-0.1-0.5-0.2-0.7-0.4c-0.4-0.3-0.6-0.8-0.6-1.4c0-0.6,0.3-1.2,1-1.7
		c0.8-0.6,2.1-0.9,3.7-0.9v-1c0-0.8-0.5-1.3-1.7-1.3C2488.4,207.4,2488,207.6,2487.7,208z M2490.7,210.3c-2.2,0.1-3.2,0.8-3.2,2
		c0,0.6,0.3,1,0.9,1.3c0.2,0,0.4,0.1,0.7,0.1s0.5,0,0.7,0s0.3-0.1,0.4-0.2c0.1-0.1,0.2-0.2,0.2-0.3s0-0.3,0-0.6v-2.2H2490.7z
		 M2490.7,210.3L2490.7,210.3L2490.7,210.3L2490.7,210.3z"/>
	<path fill="#832C30" d="M2496.5,208.1c0.3-0.7,1-1.4,2-1.8c0.7,0.3,1.3,0.7,1.6,1.3c0.5,0.7,0.9,1.8,1,3.2c0,0.4,0,0.9,0,1.4
		c0,0.4,0,0.7,0,0.9s0,0.2,0.1,0.3c0,0.1,0.1,0.1,0.2,0.1c0.1,0,0.2,0,0.3,0c0.1,0,0.1,0,0.2,0h0.1v0.5h-3.4v-0.5
		c0.2,0,0.4,0,0.5-0.1s0.2,0,0.3-0.1c0.1-0.1,0.1-0.4,0.1-0.9v-0.7c0-0.9,0-1.6,0-1.9s-0.1-0.6-0.1-0.8s-0.1-0.4-0.2-0.6
		c-0.2-0.4-0.5-0.7-1-1.2c-1.3,0.7-1.9,1.9-1.9,3.2v2.1c0,0.5,0,0.8,0.1,0.9c0,0.1,0.1,0.1,0.3,0.2c0.2,0.1,0.2,0,0.4,0.1h0.1v0.5
		h-3.4v-0.5c0,0,0,0,0.1,0c0,0,0.1,0,0.2,0s0.2,0,0.3,0s0.2,0,0.2-0.1c0.1-0.1,0.1-0.3,0.1-0.8v-4.4c0-0.3,0-0.5-0.1-0.6
		c-0.1-0.1-0.2-0.1-0.3-0.1c-0.1,0-0.3,0-0.5,0v-0.5h2.3L2496.5,208.1L2496.5,208.1z"/>
	<path fill="#832C30" d="M2418.1,228.8c0.4,0,0.7-0.1,0.8-0.2c0.1-0.1,0.1-0.2,0.1-0.3c0-0.1,0-0.2,0-0.4v-6.4c0-0.4,0-0.6-0.1-0.7
		s-0.2-0.1-0.3-0.2c-0.1,0-0.3,0-0.5-0.1v-0.5h1.6c0.2,0,0.5,0,0.8,0c0.6,0,1.2-0.1,1.6-0.1c0.4,0,0.9,0,1.4,0.1s0.7,0.2,1,0.4
		c0.5,0.3,0.8,0.8,0.8,1.5c0,0.8-0.3,1.5-0.9,2c-0.2,0.1-0.4,0.3-0.7,0.3c1.2,0.2,2,0.6,2.3,1.5c0.1,0.2,0.1,0.5,0.1,0.8
		c0,0.3,0,0.6-0.2,1c-0.2,0.4-0.3,0.6-0.7,0.9c-0.7,0.6-1.7,0.8-2.9,0.8c-0.3,0-0.6,0-1,0c-0.7-0.1-1.3-0.1-1.6-0.1h-1.6v-0.3
		H2418.1z M2420.4,227.4c0,0.4,0.1,0.6,0.3,0.8c0.2,0.2,0.8,0.3,1.7,0.3c0.9,0,1.6-0.2,2-0.6c0.3-0.3,0.5-0.8,0.5-1.4
		c0-0.8-0.3-1.5-0.9-1.8c-0.2-0.1-0.4-0.2-0.7-0.2s-0.4,0-0.5,0h-0.4c-0.1,0-0.2,0-0.4,0c-0.2,0-0.2,0-0.3,0V224l1.3-0.1
		c0.5,0,0.9-0.2,1.2-0.6c0.2-0.3,0.3-0.7,0.3-1.3c0-0.4-0.1-0.8-0.4-1c-0.3-0.3-0.8-0.4-1.7-0.4c-0.9,0-1.5,0.2-1.6,0.7
		c0,0.1,0,0.3,0,0.4L2420.4,227.4L2420.4,227.4z"/>
	<path fill="#832C30" d="M2431,229.6c-0.7-0.4-1.4-0.8-1.7-1.3c-0.6-0.7-1-1.7-1.2-3c0-0.4,0-0.9,0-1.4c0-0.4,0-0.6,0-0.8
		c0-0.2,0-0.2-0.1-0.3s-0.3-0.2-0.7-0.3v-0.5h3v0.5c-0.4,0-0.6,0.1-0.7,0.2s-0.1,0.4-0.1,0.8c0,0.4,0,0.8,0,1.3c0,0.4,0,0.7,0.1,1
		c0,0.3,0.1,0.5,0.1,0.8c0,0.3,0.1,0.4,0.3,0.6c0.2,0.4,0.6,0.8,1.2,1.4c0.5-0.4,0.8-0.8,1-1.2c0.2-0.3,0.3-0.5,0.3-0.8
		c0-0.2,0.1-0.5,0.1-0.8c0-0.5,0.1-1,0.1-1.7s0-0.9,0-1.2c0-0.2,0-0.2-0.1-0.3s-0.3-0.2-0.7-0.2v-0.5h2.9v0.5
		c-0.4,0-0.6,0.1-0.6,0.2c0,0.1-0.1,0.2-0.1,0.3c0,0.1,0,0.4,0,0.8c0,0.4,0,0.8,0,1.4c0,0.4-0.1,0.8-0.2,1.3
		c-0.1,0.4-0.2,0.7-0.3,0.9c-0.1,0.2-0.3,0.5-0.5,0.7C2432.3,228.7,2431.8,229.1,2431,229.6z"/>
	<path fill="#832C30" d="M2436.1,228.8c0.2,0,0.3,0,0.4-0.1c0.1,0,0.2-0.1,0.2-0.1c0.1-0.1,0.1-0.4,0.1-0.9v-4.9h-1v-0.5
		c0.5-0.1,0.9-0.1,1-0.2l0,0c0.1-0.1,0.1-0.4,0.2-0.8c0.1-0.4,0.1-0.7,0.1-0.9l0.8-0.3v2.2h2.2v0.7h-2.2v4.9c0,0.3,0,0.6,0.1,0.7
		c0,0.1,0.1,0.1,0.2,0.2s0.2,0.1,0.3,0.1c0.2,0,0.6,0,1.3,0v0.5h-3.9L2436.1,228.8L2436.1,228.8z"/>
	<path fill="#832C30" d="M2441.3,228.8c0.2,0,0.3,0,0.4-0.1c0.1,0,0.2-0.1,0.2-0.1c0.1-0.1,0.1-0.4,0.1-0.9v-4.9h-1v-0.5
		c0.5-0.1,0.9-0.1,1-0.2l0,0c0.1-0.1,0.1-0.4,0.2-0.8c0.1-0.4,0.1-0.7,0.1-0.9l0.8-0.3v2.2h2.2v0.7h-2.2v4.9c0,0.3,0,0.6,0.1,0.7
		c0,0.1,0.1,0.1,0.2,0.2s0.2,0.1,0.3,0.1c0.2,0,0.6,0,1.3,0v0.5h-3.9L2441.3,228.8L2441.3,228.8z"/>
	<path fill="#832C30" d="M2452.1,228.3c-0.5,0.6-1.4,1-2.5,1c-1,0-1.9-0.3-2.5-1s-0.8-1.6-0.8-2.6c0-1.2,0.3-2.1,0.9-2.8
		c0.6-0.7,1.5-1,2.4-1c0.7,0,1.4,0.1,1.8,0.4c0.4,0.3,0.6,0.7,0.6,1.3c0,0.6-0.3,1.3-0.9,1.7c-0.7,0.5-2,0.8-3.6,0.8
		c0.1,1.7,0.8,2.5,2.2,2.5c0.8,0,1.5-0.2,2-0.5L2452.1,228.3z M2447.5,225.4c1.5,0,2.4-0.3,2.9-1c0.2-0.2,0.2-0.5,0.2-0.8
		c0-0.4-0.2-0.7-0.6-0.9c-0.1,0-0.3-0.1-0.5-0.1s-0.4,0-0.6,0.1c-0.1,0-0.3,0.2-0.4,0.3c-0.1,0.1-0.2,0.3-0.3,0.5
		c-0.1,0.2-0.2,0.4-0.2,0.6C2447.6,224.5,2447.5,224.9,2447.5,225.4z"/>
	<path fill="#832C30" d="M2458,224c0.2-0.2,0.3-0.5,0.3-0.9c0-0.2-0.1-0.4-0.3-0.5c-0.1-0.1-0.4-0.1-0.7-0.1c-0.7,0-1.2,0.2-1.2,0.7
		v4.6c0,0.1,0,0.3,0,0.4s0.1,0.2,0.2,0.2c0.2,0.1,0.6,0.2,1.5,0.2v0.5h-4.1v-0.4l0,0c0.4,0,0.7-0.1,0.8-0.2c0.1-0.1,0.1-0.2,0.1-0.3
		c0-0.1,0-0.2,0-0.4v-4.2c0-0.4,0-0.7-0.1-0.8s-0.2-0.1-0.3-0.2c-0.1-0.1-0.3,0-0.5-0.1v-0.5h1.3c0.5,0,0.8,0,1,0s0.3,0,0.5,0
		c0.3,0,0.6,0,0.8,0c0.2,0,0.4,0,0.7,0c0.2,0,0.4,0.1,0.6,0.2c0.4,0.2,0.6,0.5,0.6,0.8c0,0.3-0.1,0.6-0.4,0.9
		c-0.2,0.2-0.5,0.4-0.8,0.5L2458,224z"/>
	<path fill="#832C30" d="M2460.7,228.8c0.4,0,0.7-0.1,0.8-0.2c0.1-0.1,0.1-0.2,0.1-0.3c0-0.1,0-0.2,0-0.4v-7.4c0-0.4,0-0.6-0.2-0.7
		c-0.1,0-0.3-0.1-0.8-0.1V219h3.4v0.5c-0.4,0-0.7,0.1-0.8,0.1c-0.1,0.1-0.2,0.3-0.2,0.7v2.2c0.3-0.4,0.8-0.6,1.5-0.7
		c0.2,0,0.4,0,0.6,0s0.5,0,0.8,0.1c0.3,0.1,0.5,0.2,0.7,0.4s0.4,0.3,0.6,0.6c0.2,0.2,0.3,0.5,0.4,0.7c0.2,0.5,0.3,1.2,0.3,1.9
		c0,1-0.3,2-0.8,2.7c-0.4,0.5-0.8,0.8-1.5,1c-0.3,0.1-0.6,0.1-0.8,0.1c-0.3,0-0.7,0-1.2,0c-0.7-0.1-1.3-0.1-1.4-0.1h-1.6
		L2460.7,228.8L2460.7,228.8z M2463,227.4c0,0.3,0.1,0.6,0.3,0.8c0.2,0.2,0.7,0.3,1.5,0.3c0.6,0,1.2-0.3,1.6-0.9
		c0.3-0.5,0.4-1.4,0.4-2.3c0-1.4-0.3-2.3-0.9-2.8c-0.2-0.2-0.4-0.2-0.7-0.2c-0.3,0-0.5,0-0.8,0.1c-0.2,0.1-0.4,0.2-0.6,0.3
		c-0.4,0.3-0.6,0.7-0.6,1.2L2463,227.4L2463,227.4z"/>
	<path fill="#832C30" d="M2472.6,229.6c-0.7-0.4-1.4-0.8-1.7-1.3c-0.6-0.7-1-1.7-1.2-3c0-0.4,0-0.9,0-1.4c0-0.4,0-0.6,0-0.8
		c0-0.2,0-0.2-0.1-0.3s-0.3-0.2-0.7-0.3v-0.5h3v0.5c-0.4,0-0.6,0.1-0.7,0.2c-0.1,0.1-0.1,0.4-0.1,0.8c0,0.4,0,0.8,0,1.3
		c0,0.4,0,0.7,0.1,1c0,0.3,0.1,0.5,0.1,0.8c0,0.2,0.1,0.4,0.3,0.6c0.2,0.4,0.6,0.8,1.2,1.4c0.5-0.4,0.8-0.8,1-1.2
		c0.2-0.3,0.3-0.5,0.3-0.8c0-0.2,0.1-0.5,0.1-0.8c0-0.5,0.1-1,0.1-1.7s0-0.9,0-1.2c0-0.2,0-0.2-0.1-0.3s-0.3-0.2-0.7-0.2v-0.5h2.9
		v0.5c-0.4,0-0.6,0.1-0.6,0.2s-0.1,0.2-0.1,0.3c0,0.1,0,0.4,0,0.8c0,0.4,0,0.8,0,1.4c0,0.4-0.1,0.8-0.2,1.3
		c-0.1,0.4-0.2,0.7-0.3,0.9c-0.1,0.2-0.3,0.5-0.5,0.7C2473.9,228.7,2473.4,229.1,2472.6,229.6z"/>
	<path fill="#832C30" d="M2481.8,224c0.2-0.2,0.3-0.5,0.3-0.9c0-0.2-0.1-0.4-0.3-0.5c-0.1-0.1-0.4-0.1-0.7-0.1
		c-0.7,0-1.2,0.2-1.2,0.7v4.6c0,0.1,0,0.3,0,0.4s0.1,0.2,0.2,0.2c0.2,0.1,0.6,0.2,1.5,0.2v0.5h-4.1v-0.4l0,0c0.4,0,0.7-0.1,0.8-0.2
		c0.1-0.1,0.1-0.2,0.1-0.3c0-0.1,0-0.2,0-0.4v-4.2c0-0.4,0-0.7-0.1-0.8s-0.2-0.1-0.3-0.2c-0.1,0-0.3,0-0.5-0.1v-0.5h1.3
		c0.5,0,0.8,0,1,0c0.2,0,0.3,0,0.5,0c0.3,0,0.6,0,0.8,0c0.2,0,0.4,0,0.7,0s0.4,0.1,0.6,0.2c0.4,0.2,0.6,0.5,0.6,0.8
		c0,0.3-0.1,0.6-0.4,0.9c-0.2,0.2-0.5,0.4-0.8,0.5L2481.8,224z"/>
</g>
</svg>
